<svg width="148" height="41" viewBox="0 0 148 41" fill="none" xmlns="http://www.w3.org/2000/svg">
<g clip-path="url(#clip0_837_9243)">
<g clip-path="url(#clip1_837_9243)">
<path fill-rule="evenodd" clip-rule="evenodd" d="M112.105 25.0957C110.127 31.5208 104.109 36.2102 96.9658 36.2102C93.4354 36.2102 90.18 35.0648 87.5512 33.1306C86.6142 33.1784 85.7022 33.1915 84.82 33.1704C87.9796 36.1629 92.2568 38 96.9658 38C105.648 38 112.863 31.7551 114.31 23.5382C113.616 24.0682 112.88 24.5884 112.105 25.0957ZM112.682 22.3752C112.756 21.7602 112.793 21.1344 112.793 20.5C112.793 11.8425 105.726 4.78977 96.9658 4.78977C88.2053 4.78977 81.138 11.8425 81.138 20.5C81.138 24.6624 82.7719 28.4539 85.4418 31.2691C84.5958 31.2639 83.7799 31.2265 82.9986 31.1577C80.715 28.2064 79.3574 24.5109 79.3574 20.5C79.3574 10.835 87.241 3 96.9658 3C106.691 3 114.574 10.835 114.574 20.5C114.574 20.6247 114.573 20.7491 114.57 20.8732C113.984 21.3798 113.353 21.8815 112.682 22.3752Z" fill="#353541"/>
<path d="M33.1546 21.0566C33.1499 20.4744 33.0296 20.0141 32.7936 19.6758C32.5651 19.3374 32.2026 19.1703 31.706 19.1744C31.4805 19.1763 31.2664 19.2121 31.0638 19.2818C30.8687 19.3515 30.7114 19.4284 30.5917 19.5126L30.6198 22.9265C30.7178 22.9484 30.842 22.9701 30.9928 22.9915C31.1509 23.0053 31.339 23.0112 31.557 23.0094C32.0611 23.0053 32.4547 22.8318 32.7376 22.4892C33.0207 22.139 33.1596 21.6615 33.1546 21.0566ZM34.554 21.0677C34.558 21.544 34.4901 21.9756 34.3502 22.3624C34.2181 22.7416 34.0214 23.0683 33.7603 23.3427C33.5068 23.6172 33.1962 23.8276 32.8288 23.9743C32.4614 24.1211 32.0445 24.1964 31.5782 24.2002C31.1267 24.204 30.694 24.1736 30.2797 24.1089C29.873 24.0443 29.5339 23.9715 29.2622 23.8906L29.1934 15.4977L30.5567 15.2595L30.582 18.3331C30.7393 18.2486 30.9305 18.1714 31.1556 18.1015C31.3883 18.0315 31.6437 17.9953 31.9221 17.993C32.3358 17.9896 32.7049 18.0621 33.0298 18.2107C33.362 18.3516 33.6382 18.5572 33.8586 18.8276C34.079 19.098 34.2472 19.4255 34.3631 19.8102C34.4865 20.1873 34.5503 20.6064 34.554 21.0677Z" fill="#333333"/>
<path d="M41.3833 20.9996C41.3872 21.4684 41.3229 21.8962 41.1908 22.2829C41.0584 22.6697 40.8693 23.0001 40.6233 23.2743C40.3774 23.5488 40.0783 23.7629 39.7259 23.9171C39.3811 24.0712 38.998 24.1499 38.5768 24.1535C38.1556 24.1569 37.7712 24.0845 37.424 23.9362C37.0767 23.7878 36.7778 23.5786 36.5273 23.3085C36.2769 23.0383 36.0786 22.711 35.9326 22.3266C35.7939 21.9421 35.7227 21.5155 35.7189 21.0467C35.715 20.5779 35.7793 20.1539 35.9114 19.7747C36.0513 19.3879 36.2442 19.0574 36.4901 18.7831C36.7438 18.5088 37.0429 18.2984 37.3878 18.1518C37.7326 17.9977 38.1119 17.919 38.5256 17.9155C38.9393 17.9121 39.3197 17.9845 39.667 18.1329C40.0217 18.2736 40.3244 18.479 40.5749 18.7492C40.8253 19.0193 41.0198 19.3466 41.1585 19.7311C41.3045 20.108 41.3795 20.5308 41.3833 20.9996ZM39.9841 21.0113C39.9792 20.4215 39.8476 19.9575 39.589 19.6194C39.3379 19.2737 38.9868 19.1027 38.5353 19.1064C38.084 19.1102 37.7318 19.287 37.479 19.6369C37.2334 19.9792 37.1131 20.4453 37.1181 21.0351C37.123 21.6324 37.251 22.1039 37.5021 22.4497C37.7607 22.7954 38.1156 22.9663 38.5669 22.9625C39.0184 22.9587 39.3668 22.782 39.6121 22.4322C39.865 22.0822 39.989 21.6086 39.9841 21.0113Z" fill="#333333"/>
<path d="M48.2116 20.9429C48.2153 21.4117 48.1512 21.8395 48.0189 22.2262C47.8867 22.6129 47.6976 22.9434 47.4516 23.2176C47.2055 23.4919 46.9064 23.7063 46.554 23.8604C46.2094 24.0145 45.8263 24.0932 45.4051 24.0968C44.9837 24.1002 44.5995 24.0278 44.2523 23.8795C43.905 23.7311 43.6061 23.5219 43.3556 23.2517C43.1052 22.9816 42.9069 22.6543 42.7607 22.2699C42.6222 21.8854 42.551 21.4587 42.547 20.9899C42.5433 20.5212 42.6074 20.0972 42.7397 19.718C42.8794 19.3312 43.0723 19.0006 43.3184 18.7264C43.5719 18.4521 43.871 18.2416 44.2159 18.0951C44.5607 17.941 44.94 17.8622 45.3537 17.8588C45.7676 17.8553 46.148 17.9278 46.4953 18.0762C46.85 18.2169 47.1527 18.4223 47.4032 18.6925C47.6536 18.9626 47.8481 19.2899 47.9866 19.6744C48.1326 20.0513 48.2076 20.4741 48.2116 20.9429ZM46.8124 20.9545C46.8075 20.3648 46.6757 19.9008 46.4173 19.5627C46.166 19.2169 45.8149 19.0459 45.3636 19.0497C44.9123 19.0534 44.5601 19.2303 44.3071 19.5802C44.0617 19.9225 43.9415 20.3886 43.9462 20.9783C43.9511 21.5757 44.0792 22.0472 44.3302 22.3929C44.589 22.7386 44.9439 22.9096 45.3952 22.9058C45.8465 22.9021 46.1949 22.7253 46.4403 22.3754C46.6933 22.0255 46.8171 21.5518 46.8124 20.9545Z" fill="#333333"/>
<path d="M51.0623 20.2727C51.2339 20.0898 51.4165 19.8955 51.6106 19.6897C51.8043 19.4764 51.9944 19.2668 52.1808 19.0611C52.3671 18.8478 52.5422 18.646 52.7062 18.4556C52.8776 18.2576 53.0228 18.0862 53.1421 17.9416L54.7557 17.9282C54.383 18.3547 53.9879 18.7966 53.5704 19.2537C53.1603 19.7108 52.7466 20.1566 52.3288 20.5911C52.5561 20.7783 52.7949 21.0069 53.0454 21.2771C53.2958 21.5396 53.5388 21.8212 53.7744 22.1217C54.0103 22.4222 54.2309 22.7228 54.4364 23.0236C54.642 23.3242 54.8135 23.6027 54.951 23.8586L53.3714 23.8717C53.2341 23.6384 53.074 23.394 52.8914 23.1385C52.7163 22.8829 52.5262 22.6349 52.321 22.3946C52.1159 22.1544 51.9071 21.9293 51.6949 21.7193C51.4824 21.5018 51.274 21.3182 51.0697 21.1687L51.092 23.8906L49.7267 23.9021L49.6562 15.3277L51.0198 15.0895L51.0623 20.2727Z" fill="#333333"/>
<path d="M57.4043 23.8383L56.039 23.8496L55.9901 17.9179L57.3554 17.9066L57.4043 23.8383ZM57.4878 16.1701C57.49 16.4272 57.4088 16.632 57.2446 16.7846C57.0804 16.9372 56.8853 17.0144 56.6598 17.0163C56.4265 17.0182 56.2265 16.9443 56.0599 16.7944C55.8931 16.6446 55.8087 16.4411 55.8067 16.184C55.8045 15.9194 55.8854 15.7108 56.0496 15.5582C56.2139 15.4056 56.4127 15.3283 56.6459 15.3264C56.8715 15.3245 57.0678 15.3985 57.2345 15.5483C57.4011 15.6982 57.4856 15.9054 57.4878 16.1701Z" fill="#333333"/>
<path d="M59.1836 18.0842C59.4461 18.0064 59.7878 17.9317 60.2086 17.8602C60.6293 17.7886 61.0954 17.7507 61.607 17.7465C62.0884 17.7425 62.4914 17.8072 62.8161 17.9406C63.1405 18.0665 63.3977 18.2496 63.5879 18.49C63.7853 18.7227 63.923 19.0089 64.0012 19.3486C64.0866 19.6806 64.131 20.047 64.1343 20.4477L64.1616 23.7822L62.7965 23.7935L62.7708 20.6745C62.7682 20.3569 62.7433 20.0887 62.6964 19.8698C62.657 19.6433 62.5878 19.4624 62.4888 19.3271C62.3974 19.1842 62.2686 19.0832 62.1026 19.0241C61.9442 18.9573 61.7483 18.9249 61.515 18.9269C61.3421 18.9283 61.1617 18.9411 60.9737 18.9654C60.786 18.9896 60.6469 19.0097 60.5567 19.0256L60.596 23.8118L59.2307 23.8232L59.1836 18.0842Z" fill="#333333"/>
<path d="M66.9618 20.6397C66.9666 21.2219 67.0944 21.6481 67.3449 21.9182C67.6026 22.1807 67.9311 22.3103 68.3297 22.307C68.548 22.3052 68.7507 22.2733 68.9383 22.2112C69.1334 22.1491 69.2907 22.076 69.4104 21.9918L69.3852 18.9182C69.2871 18.8963 69.1666 18.8784 69.0236 18.8645C68.8805 18.843 68.6999 18.8331 68.4817 18.835C67.9853 18.8391 67.6068 19.0086 67.3462 19.3435C67.0855 19.6708 66.9575 20.1028 66.9618 20.6397ZM70.7852 23.126C70.7929 24.0712 70.5579 24.765 70.0801 25.2075C69.6098 25.6499 68.8819 25.8752 67.8964 25.8836C67.5354 25.8866 67.1816 25.8591 66.835 25.8017C66.4961 25.744 66.1871 25.667 65.9079 25.5712L66.1465 24.4009C66.3805 24.4971 66.6445 24.5745 66.9383 24.6325C67.2396 24.6904 67.5635 24.7181 67.9095 24.7151C68.4585 24.7105 68.8489 24.594 69.0802 24.3651C69.3114 24.1364 69.4252 23.7989 69.4216 23.3529L69.4197 23.126C69.2849 23.1952 69.1049 23.2648 68.8797 23.3346C68.6623 23.4046 68.4105 23.4406 68.1246 23.4429C67.7485 23.4461 67.402 23.3885 67.0851 23.2701C66.7756 23.1518 66.5072 22.9762 66.2794 22.7437C66.0594 22.5111 65.8839 22.2215 65.7534 21.8747C65.6301 21.5203 65.5664 21.1126 65.5626 20.6513C65.5591 20.2203 65.6198 19.8228 65.7447 19.4588C65.8772 19.0948 66.0664 18.7832 66.3125 18.524C66.5661 18.2648 66.873 18.0619 67.2329 17.9152C67.5928 17.7686 68.0021 17.6934 68.4611 17.6895C68.9049 17.6859 69.3265 17.7164 69.7257 17.7811C70.1248 17.8459 70.4639 17.9149 70.7429 17.9882L70.7852 23.126Z" fill="#333333"/>
<path d="M0.0255341 20.9453C0.0219291 20.5068 0.0862696 20.098 0.218555 19.7188C0.35078 19.3321 0.539852 18.9978 0.785773 18.716C1.03922 18.4342 1.34581 18.2123 1.70556 18.0506C2.06531 17.8888 2.47083 17.8061 2.92214 17.8023C3.47876 17.7977 4.00612 17.8954 4.50426 18.0954L4.22013 19.2206C4.06162 19.1538 3.88063 19.0986 3.67716 19.055C3.48122 19.0112 3.27041 18.9903 3.04477 18.9922C2.5107 18.9966 2.10592 19.1701 1.83041 19.5126C1.55484 19.8476 1.41957 20.3213 1.4246 20.9337C1.42945 21.5234 1.56494 21.9911 1.83106 22.3367C2.09712 22.6747 2.54231 22.8411 3.16662 22.8359C3.3998 22.834 3.62903 22.8094 3.85431 22.7622C4.0796 22.7149 4.2747 22.6566 4.43962 22.5872L4.64076 23.7196C4.49095 23.7966 4.26208 23.8666 3.95419 23.9296C3.65382 23.9924 3.34189 24.0253 3.01845 24.028C2.5145 24.0322 2.07383 23.9602 1.6965 23.8123C1.32663 23.6566 1.01646 23.4436 0.766001 23.1735C0.523001 22.8957 0.339772 22.5683 0.216315 22.1913C0.0927948 21.8067 0.0292014 21.3914 0.0255341 20.9453Z" fill="#353541"/>
<path d="M7.82266 22.8767C8.24388 22.8732 8.56338 22.8478 8.78113 22.8006L8.76865 21.281C8.69323 21.2589 8.58398 21.2371 8.44088 21.2156C8.29777 21.1942 8.13973 21.1841 7.96672 21.1856C7.81629 21.1868 7.66219 21.1994 7.50441 21.2234C7.35416 21.2473 7.21535 21.2901 7.08796 21.3516C6.96813 21.4131 6.87104 21.5009 6.79677 21.6149C6.72242 21.7214 6.68592 21.8578 6.68728 22.0241C6.68997 22.3492 6.79337 22.5752 6.99753 22.702C7.2016 22.8213 7.47665 22.8795 7.82266 22.8767ZM7.66779 17.7629C8.1191 17.7591 8.49942 17.8127 8.80875 17.9235C9.11807 18.0344 9.36383 18.1911 9.54605 18.3938C9.73576 18.5963 9.86945 18.8447 9.9471 19.139C10.0322 19.4256 10.0762 19.7428 10.079 20.0906L10.1086 23.6856C9.89835 23.7327 9.57911 23.7882 9.15085 23.8522C8.73019 23.9238 8.25282 23.9618 7.71878 23.9664C7.36524 23.9692 7.04153 23.938 6.74763 23.8723C6.4537 23.8067 6.20082 23.6991 5.98896 23.5498C5.78463 23.4002 5.6213 23.2049 5.49896 22.9639C5.38415 22.723 5.32527 22.4248 5.32236 22.0695C5.31955 21.7293 5.38112 21.4414 5.50707 21.206C5.64053 20.9705 5.81951 20.78 6.04398 20.6344C6.2684 20.4814 6.52703 20.3734 6.8199 20.3104C7.12021 20.2399 7.43208 20.2033 7.75552 20.2006C7.90596 20.1993 8.06402 20.2094 8.22967 20.2307C8.39529 20.2444 8.57231 20.2732 8.76071 20.317L8.75886 20.0902C8.75755 19.9314 8.73751 19.7803 8.69871 19.637C8.65991 19.4937 8.5912 19.3695 8.49253 19.2645C8.40135 19.1518 8.27652 19.0659 8.11807 19.0067C7.96713 18.9475 7.77508 18.9188 7.5419 18.9208C7.22598 18.9234 6.93657 18.9485 6.67369 18.996C6.41079 19.0436 6.19684 19.0983 6.03186 19.1601L5.85348 18.0502C6.026 17.9882 6.27748 17.9256 6.60795 17.8624C6.93841 17.7992 7.29168 17.766 7.66779 17.7629Z" fill="#353541"/>
<path d="M15.1631 19.0843C15.0499 19.0474 14.8917 19.0109 14.6883 18.9748C14.4923 18.9311 14.2627 18.9103 13.9995 18.9125C13.849 18.9137 13.6874 18.9302 13.5147 18.9619C13.3494 18.9935 13.2331 19.0209 13.1656 19.0442L13.2046 23.796L11.8394 23.8073L11.793 18.1596C12.0554 18.0591 12.3819 17.9657 12.7723 17.8793C13.1703 17.7852 13.6099 17.7362 14.0913 17.7322C14.1816 17.7315 14.2869 17.7381 14.4074 17.7523C14.5278 17.7588 14.6483 17.7729 14.7688 17.7946C14.8893 17.8088 15.0061 17.8305 15.1192 17.8598C15.2322 17.8815 15.3226 17.9034 15.3905 17.9256L15.1631 19.0843Z" fill="#353541"/>
<path d="M17.493 20.6414C17.4978 21.2236 17.6254 21.6497 17.8758 21.9199C18.1338 22.1824 18.462 22.3119 18.8607 22.3086C19.0788 22.3068 19.2817 22.2749 19.4692 22.2128C19.6643 22.1507 19.8217 22.0776 19.9414 21.9934L19.9161 18.9201C19.8181 18.8982 19.6976 18.8803 19.5545 18.8664C19.4114 18.8449 19.2308 18.835 19.0127 18.8368C18.5163 18.841 18.1378 19.0105 17.8772 19.3453C17.6166 19.6726 17.4886 20.1046 17.493 20.6414ZM21.316 23.1276C21.3237 24.0726 21.0887 24.7664 20.6109 25.2089C20.1406 25.6514 19.4129 25.8767 18.4275 25.8848C18.0664 25.8878 17.7127 25.8606 17.3661 25.8029C17.0272 25.7452 16.7181 25.6685 16.439 25.5724L16.6776 24.4023C16.9116 24.4985 17.1755 24.5759 17.4694 24.6338C17.7707 24.6918 18.0944 24.7195 18.4404 24.7165C18.9895 24.7119 19.3798 24.5954 19.6111 24.3665C19.8425 24.1378 19.9562 23.8003 19.9525 23.3543L19.9507 23.1276C19.8157 23.1968 19.6359 23.2662 19.4108 23.3362C19.1932 23.406 18.9415 23.4422 18.6557 23.4446C18.2796 23.4475 17.9331 23.3901 17.6161 23.2718C17.3068 23.1532 17.0383 22.9778 16.8107 22.7453C16.5906 22.5127 16.4152 22.2231 16.2845 21.8764C16.1612 21.522 16.0977 21.1142 16.0939 20.6531C16.0904 20.2221 16.151 19.8247 16.2759 19.4607C16.4083 19.0967 16.5976 18.7851 16.8437 18.526C17.0973 18.2668 17.4041 18.0639 17.7639 17.9172C18.1238 17.7706 18.5332 17.6953 18.992 17.6915C19.4358 17.6878 19.8573 17.7183 20.2565 17.7831C20.6558 17.8478 20.9947 17.9168 21.2737 17.9901L21.316 23.1276Z" fill="#353541"/>
<path d="M28.4258 20.698C28.4298 21.1668 28.3657 21.5945 28.2333 21.9813C28.1012 22.368 27.912 22.6984 27.6661 22.9726C27.42 23.2469 27.1208 23.4611 26.7687 23.6152C26.4238 23.7693 26.041 23.848 25.6196 23.8516C25.1984 23.8552 24.8141 23.7826 24.4669 23.6345C24.1197 23.4861 23.8209 23.2769 23.5705 23.0067C23.32 22.7366 23.1216 22.4093 22.9755 22.0249C22.8371 21.6405 22.7658 21.2139 22.7619 20.7451C22.7581 20.2763 22.8222 19.8524 22.9546 19.4732C23.0943 19.0865 23.2872 18.756 23.5333 18.4817C23.7867 18.2074 24.0859 17.997 24.4307 17.8505C24.7754 17.6964 25.1546 17.6176 25.5683 17.6142C25.982 17.6108 26.3625 17.6832 26.7099 17.8315C27.0644 17.9723 27.3671 18.1777 27.6176 18.4478C27.8681 18.7179 28.0626 19.0452 28.2011 19.4297C28.3471 19.8065 28.4221 20.2293 28.4258 20.698ZM27.0269 20.7097C27.0219 20.12 26.8903 19.656 26.6318 19.3179C26.3807 18.9722 26.0295 18.8012 25.5782 18.805C25.1269 18.8087 24.7748 18.9856 24.5219 19.3355C24.2764 19.6778 24.1561 20.1438 24.161 20.7335C24.166 21.3308 24.294 21.8023 24.5451 22.148C24.8037 22.4936 25.1586 22.6646 25.6099 22.6609C26.0612 22.6571 26.4096 22.4803 26.6549 22.1305C26.9078 21.7806 27.0318 21.3069 27.0269 20.7097Z" fill="#353541"/>
<path d="M124.967 23.1119C124.969 23.3766 124.881 23.5927 124.702 23.7606C124.53 23.9284 124.32 24.0133 124.072 24.0153C123.816 24.0175 123.601 23.936 123.427 23.7711C123.253 23.6062 123.164 23.3915 123.162 23.127C123.16 22.8623 123.245 22.6461 123.416 22.4783C123.588 22.303 123.802 22.2142 124.057 22.2121C124.305 22.2101 124.517 22.2953 124.691 22.4677C124.873 22.6326 124.965 22.8473 124.967 23.1119Z" fill="#353541"/>
<path d="M126.254 20.8896C126.25 20.4511 126.315 20.0422 126.447 19.6631C126.579 19.2764 126.768 18.9421 127.014 18.6603C127.268 18.3785 127.574 18.1566 127.934 17.9949C128.294 17.8331 128.699 17.7503 129.151 17.7466C129.707 17.742 130.235 17.8397 130.733 18.0397L130.449 19.1648C130.29 19.0981 130.109 19.0429 129.906 18.9992C129.71 18.9555 129.499 18.9346 129.273 18.9364C128.739 18.9409 128.334 19.1144 128.059 19.4569C127.783 19.7919 127.648 20.2656 127.653 20.878C127.658 21.4677 127.793 21.9353 128.06 22.2809C128.326 22.619 128.771 22.7854 129.395 22.7802C129.628 22.7783 129.858 22.7537 130.083 22.7065C130.308 22.6592 130.503 22.6009 130.668 22.5315L130.869 23.6639C130.719 23.7409 130.491 23.8109 130.183 23.8739C129.882 23.9367 129.571 23.9696 129.247 23.9723C128.743 23.9765 128.302 23.9045 127.925 23.7564C127.555 23.6007 127.245 23.3879 126.995 23.1178C126.752 22.84 126.568 22.5126 126.445 22.1356C126.321 21.751 126.258 21.3357 126.254 20.8896Z" fill="#353541"/>
<path d="M137.287 20.7866C137.291 21.2554 137.227 21.6831 137.094 22.0698C136.962 22.4565 136.773 22.787 136.527 23.0612C136.281 23.3354 135.982 23.5498 135.63 23.7039C135.285 23.858 134.902 23.9368 134.481 23.9401C134.06 23.9437 133.675 23.8713 133.328 23.723C132.981 23.5746 132.682 23.3654 132.432 23.0952C132.181 22.8251 131.983 22.4979 131.837 22.1135C131.698 21.729 131.627 21.3024 131.623 20.8336C131.619 20.3649 131.684 19.9409 131.816 19.5618C131.956 19.175 132.149 18.8445 132.394 18.5703C132.648 18.296 132.947 18.0855 133.292 17.939C133.637 17.7849 134.016 17.7062 134.43 17.7028C134.843 17.6993 135.224 17.7718 135.571 17.9201C135.926 18.0608 136.228 18.2662 136.479 18.5364C136.729 18.8065 136.924 19.1338 137.062 19.5182C137.208 19.8951 137.283 20.3179 137.287 20.7866ZM135.888 20.7982C135.883 20.2085 135.751 19.7446 135.493 19.4065C135.242 19.0608 134.891 18.8898 134.439 18.8935C133.988 18.8973 133.636 19.0741 133.383 19.424C133.138 19.7663 133.017 20.2323 133.022 20.822C133.027 21.4193 133.155 21.8908 133.406 22.2365C133.665 22.5822 134.02 22.7532 134.471 22.7494C134.922 22.7457 135.271 22.5689 135.516 22.219C135.769 21.8691 135.893 21.3955 135.888 20.7982Z" fill="#353541"/>
<path d="M142.226 20.5981C142.221 19.9782 142.138 19.5327 141.978 19.2619C141.825 18.9834 141.538 18.8459 141.117 18.8494C140.966 18.8506 140.801 18.8634 140.621 18.8876C140.44 18.9117 140.305 18.9318 140.215 18.9476L140.254 23.7335L138.889 23.7448L138.842 18.0063C139.105 17.9285 139.446 17.8539 139.867 17.7823C140.295 17.7107 140.746 17.673 141.22 17.669C141.626 17.6656 141.957 17.7158 142.214 17.8195C142.478 17.9232 142.697 18.0613 142.872 18.2337C142.954 18.1725 143.059 18.1074 143.186 18.0383C143.314 17.9692 143.456 17.9075 143.613 17.8533C143.771 17.7915 143.936 17.741 144.109 17.7017C144.289 17.6624 144.469 17.642 144.65 17.6405C145.109 17.6367 145.485 17.7017 145.78 17.8353C146.082 17.9613 146.316 18.1446 146.484 18.3852C146.659 18.6181 146.778 18.9045 146.841 19.2442C146.911 19.5763 146.948 19.9427 146.951 20.3434L146.979 23.6776L145.613 23.6889L145.588 20.5702C145.583 19.9502 145.504 19.5048 145.351 19.2339C145.198 18.9554 144.908 18.8179 144.479 18.8215C144.261 18.8233 144.054 18.8628 143.859 18.94C143.664 19.0097 143.518 19.079 143.421 19.1478C143.483 19.3364 143.526 19.5363 143.55 19.7479C143.574 19.9594 143.588 20.1861 143.59 20.428L143.616 23.7055L142.251 23.7168L142.226 20.5981Z" fill="#353541"/>
<path d="M90.0632 25.6076C89.842 25.6096 89.6125 25.5949 89.3749 25.564C89.1454 25.5412 88.924 25.506 88.7105 25.4584C88.5056 25.4189 88.3168 25.3751 88.1445 25.3272C87.972 25.2711 87.8406 25.2186 87.75 25.1701L88.0345 23.8958C88.207 23.9767 88.4577 24.0694 88.7861 24.1736C89.1143 24.2696 89.5201 24.3156 90.0033 24.3116C90.6502 24.3062 91.1162 24.1789 91.4007 23.9296C91.6852 23.672 91.8256 23.3334 91.8223 22.9136C91.8201 22.6419 91.7609 22.4161 91.6448 22.2359C91.5368 22.0557 91.384 21.9129 91.1866 21.8076C90.9975 21.6939 90.7757 21.6175 90.5214 21.5785C90.2753 21.5311 90.0132 21.5086 89.7346 21.5109L89.2311 21.5151L89.221 20.3051L89.8353 20.3C90.0237 20.2984 90.2118 20.2804 90.4 20.2459C90.596 20.2031 90.7717 20.1358 90.9264 20.044C91.0813 19.9439 91.2072 19.8153 91.3041 19.6581C91.4011 19.5009 91.4485 19.2988 91.4466 19.0518C91.445 18.8543 91.4068 18.6859 91.3318 18.5465C91.257 18.4072 91.1577 18.2928 91.0343 18.2033C90.9187 18.1137 90.7832 18.049 90.6273 18.0091C90.4712 17.9692 90.3074 17.95 90.1354 17.9514C89.7668 17.9545 89.4398 18.0148 89.1541 18.1325C88.8684 18.2418 88.6156 18.3674 88.3956 18.5092L87.846 17.4025C87.9599 17.3274 88.0986 17.2481 88.2616 17.1644C88.4247 17.0807 88.6043 17.001 88.8002 16.9253C89.0043 16.8495 89.2208 16.7901 89.4497 16.747C89.6786 16.6958 89.92 16.6691 90.174 16.6669C90.6488 16.663 91.0588 16.7172 91.4036 16.8296C91.7487 16.942 92.0326 17.1043 92.2554 17.3165C92.4864 17.5203 92.6562 17.7659 92.765 18.0531C92.8819 18.332 92.9419 18.6402 92.9447 18.9777C92.9478 19.3728 92.8402 19.7276 92.6218 20.0423C92.4115 20.3568 92.1349 20.5978 91.7924 20.7653C92.2358 20.918 92.6024 21.1743 92.892 21.5341C93.1898 21.8938 93.3409 22.3576 93.3457 22.9257C93.3489 23.3043 93.2861 23.6587 93.1579 23.989C93.0295 24.3112 92.8311 24.5928 92.5628 24.8336C92.2945 25.0665 91.9521 25.2544 91.5356 25.3978C91.1272 25.533 90.6364 25.6028 90.0632 25.6076Z" fill="#353541"/>
<path d="M97.5737 21.1989C97.3363 21.2008 97.1072 21.2233 96.8864 21.2663C96.6656 21.3093 96.4654 21.3727 96.2859 21.4565C96.2782 21.5224 96.2707 21.5966 96.2632 21.679C96.2638 21.753 96.2644 21.8271 96.2649 21.9012C96.2677 22.2304 96.2909 22.5431 96.3342 22.839C96.3856 23.1268 96.4656 23.3813 96.5738 23.6026C96.6903 23.8156 96.8433 23.9872 97.0326 24.1175C97.2302 24.2392 97.4722 24.2991 97.7589 24.2967C97.9963 24.2947 98.1965 24.2436 98.3595 24.1434C98.5307 24.0433 98.6688 23.9145 98.774 23.7572C98.8793 23.5999 98.9557 23.4306 99.0033 23.2491C99.0508 23.0593 99.074 22.878 99.0726 22.7052C99.0684 22.2113 98.9465 21.8378 98.707 21.5846C98.4674 21.3231 98.0897 21.1946 97.5737 21.1989ZM97.7482 20.012C98.2559 20.0078 98.6864 20.0783 99.0397 20.2236C99.4012 20.3605 99.6936 20.5515 99.9168 20.7966C100.14 21.0417 100.302 21.3285 100.403 21.6569C100.512 21.9771 100.568 22.3141 100.571 22.668C100.574 22.9891 100.519 23.3189 100.407 23.6571C100.303 23.9956 100.134 24.3056 99.8988 24.5876C99.6717 24.8611 99.3828 25.0897 99.0322 25.2739C98.6814 25.4497 98.2646 25.5396 97.7814 25.5436C96.8068 25.5517 96.059 25.2367 95.5379 24.5989C95.0248 23.953 94.7635 23.0619 94.7542 21.9261C94.7475 21.103 94.8602 20.3735 95.0925 19.7377C95.3329 19.0937 95.6724 18.5516 96.111 18.1117C96.5578 17.6717 97.0957 17.338 97.7243 17.1105C98.3611 16.8747 99.0767 16.7494 99.8711 16.7346L99.9672 17.9686C99.5251 17.9805 99.1119 18.0333 98.7277 18.127C98.3435 18.2125 98.0006 18.3471 97.6991 18.5307C97.3976 18.7143 97.1374 18.9511 96.9188 19.241C96.7083 19.5309 96.5475 19.8862 96.4361 20.3069C96.8359 20.1143 97.2732 20.016 97.7482 20.012Z" fill="#353541"/>
<path d="M105.811 22.8468C105.809 22.5752 105.753 22.3328 105.645 22.1197C105.537 21.9065 105.347 21.727 105.076 21.5811C104.812 21.4351 104.455 21.3269 104.004 21.2566C103.561 21.1862 103 21.1538 102.32 21.1595C102.404 20.3685 102.467 19.6189 102.511 18.9106C102.554 18.1941 102.589 17.4776 102.616 16.7612L106.964 16.7251L106.975 17.9845L103.892 18.0101C103.884 18.1501 103.874 18.3107 103.859 18.4919C103.852 18.6648 103.841 18.8419 103.826 19.0231C103.82 19.2043 103.809 19.3772 103.794 19.542C103.779 19.7068 103.763 19.8468 103.748 19.9622C104.96 20.018 105.855 20.2904 106.433 20.7796C107.018 21.2604 107.314 21.9247 107.321 22.7725C107.324 23.1594 107.262 23.5179 107.133 23.8483C107.005 24.1788 106.807 24.4643 106.539 24.7054C106.27 24.9462 105.932 25.1383 105.524 25.2817C105.115 25.4167 104.637 25.4867 104.088 25.4913C103.867 25.4931 103.642 25.4783 103.412 25.4473C103.183 25.4163 102.961 25.3771 102.748 25.3294C102.543 25.29 102.358 25.2463 102.194 25.1981C102.03 25.1502 101.907 25.1059 101.824 25.0655L102.096 23.8037C102.269 23.8846 102.516 23.9731 102.836 24.0692C103.164 24.1571 103.562 24.199 104.028 24.1951C104.348 24.1925 104.622 24.1573 104.85 24.0895C105.079 24.0135 105.263 23.9133 105.401 23.7886C105.547 23.6639 105.653 23.5231 105.717 23.3662C105.781 23.201 105.812 23.0279 105.811 22.8468Z" fill="#353541"/>
<path fill-rule="evenodd" clip-rule="evenodd" d="M112.183 24.834C110.29 31.3931 104.206 36.2102 96.9659 36.2102C93.4763 36.2102 90.2551 35.091 87.6424 33.197L84.9434 33.2861C88.0905 36.2102 92.3179 38 96.9659 38C105.686 38 112.926 31.7004 114.329 23.4306L112.183 24.834Z" fill="#333333"/>
<path fill-rule="evenodd" clip-rule="evenodd" d="M78.962 20.0028C78.962 20.045 78.9622 20.0871 78.9626 20.1293C75.8149 23.2449 74.9009 26.0043 75.5243 27.912C76.1698 29.8867 78.6811 31.6142 83.355 32.1913C87.2989 32.6784 92.306 32.2576 97.6348 30.7834L98.0841 32.5153C86.265 35.7792 75.68 34.1221 73.8327 28.4706C72.7522 25.1651 74.8844 21.1781 79.1302 17.5536C79.0194 18.3542 78.962 19.1719 78.962 20.0028ZM106.886 29.0893C115.252 25.1087 121.983 18.9223 120.108 13.1887C119.047 9.94027 115.098 8.01151 109.688 7.57837C110.301 8.20296 110.867 8.87214 111.383 9.58055C115.547 10.2476 117.809 11.8878 118.417 13.7473C119.062 15.7223 118.06 18.6102 114.637 21.8611C111.742 24.6107 110.147 25.3143 106.356 27.403L106.968 27.5722C107.391 27.7823 107.595 28.0908 107.227 28.5721L106.886 29.0893Z" fill="#3796F6"/>
<path d="M100.171 29.7837C100.167 30.0305 98.813 30.5339 98.2345 30.671C98.2345 30.671 96.8358 29.5122 96.6067 29.8939C96.3776 30.2757 97.2968 31.1635 97.5031 31.6747C97.8131 32.4427 97.5389 33.6125 97.9066 33.5887C98.426 33.5549 98.5463 32.3685 98.6484 31.8543C99.1248 31.5116 100.343 31.2275 100.567 31.2736C100.928 31.3479 100.787 32.6248 100.787 34.4758C102.012 34.4758 102.45 31.1719 103.032 30.6082C103.614 30.0446 106.344 28.7562 106.344 28.7562C106.344 28.7562 106.916 28.5243 106.83 28.1992C106.751 27.9012 106.095 27.9974 106.095 27.9974C106.095 27.9974 103.073 28.635 102.42 28.7172C101.603 28.8201 101.399 28.1002 99.9699 27.3804C98.8266 26.8046 98.0644 27.1405 97.8262 27.3804C98.5407 28.1345 100.183 29.0352 100.171 29.7837Z" fill="#3796F6"/>
</g>
</g>
<defs>
<clipPath id="clip0_837_9243">
<rect width="148" height="41" fill="white"/>
</clipPath>
<clipPath id="clip1_837_9243">
<rect width="147" height="35" fill="white" transform="translate(0 3)"/>
</clipPath>
</defs>
</svg>
