<svg width="88" height="41" viewBox="0 0 88 41" fill="none" xmlns="http://www.w3.org/2000/svg">
<path d="M11.2262 21.5738H7.71593C7.57013 21.5738 7.45798 21.6854 7.45798 21.8304V32.9985C7.45798 33.1435 7.34583 33.2551 7.20004 33.2551H1.53646C1.39066 33.2551 1.27851 33.1435 1.27851 32.9985V21.8304C1.27851 21.6854 1.16636 21.5738 1.02057 21.5738H0.29159C0.145795 21.5738 0.0336451 21.4623 0.0336451 21.3172L0 16.9437C0 16.7987 0.11215 16.6871 0.257945 16.6871H1.07664C1.22244 16.6871 1.33459 16.5755 1.33459 16.4305V14.8462C1.33459 11.1533 3.30843 9 7.12153 9H11.1814C11.3272 9 11.4393 9.11157 11.4393 9.25661V13.976C11.4393 14.121 11.3272 14.2326 11.1814 14.2326H8.71407C7.79443 14.2326 7.2449 14.7904 7.2449 15.7276V16.676H11.215C11.3608 16.676 11.473 16.7875 11.473 16.9326V21.2949C11.4842 21.4511 11.372 21.5738 11.2262 21.5738Z" fill="#333333"/>
<path d="M14.0411 9H19.6038C19.7496 9 19.8618 9.11157 19.8618 9.25661V14.121C19.8618 14.266 19.7496 14.3776 19.6038 14.3776H14.0411C13.8953 14.3776 13.7831 14.266 13.7831 14.121V9.25661C13.7831 9.11157 13.8953 9 14.0411 9ZM13.9962 16.6871H19.6599C19.8057 16.6871 19.9178 16.7987 19.9178 16.9437V32.9984C19.9178 33.1435 19.8057 33.255 19.6599 33.255H13.9962C13.8504 33.255 13.7383 33.1435 13.7383 32.9984V16.9437C13.7383 16.7987 13.8504 16.6871 13.9962 16.6871Z" fill="#333333"/>
<path d="M22.4403 9H28.1038C28.2496 9 28.3618 9.11157 28.3618 9.25661V33.0096C28.3618 33.1546 28.2496 33.2662 28.1038 33.2662H22.4403C22.2945 33.2662 22.1823 33.1546 22.1823 33.0096V9.25661C22.1711 9.11157 22.2945 9 22.4403 9Z" fill="#333333"/>
<path d="M30.6621 25.356V15.1028C30.6621 14.9578 30.7743 14.8462 30.9201 14.8462H36.5837C36.7295 14.8462 36.8416 14.9578 36.8416 15.1028V25.0771C36.8416 27.0184 37.8622 28.1675 39.5108 28.1675C41.1594 28.1675 42.1688 27.0072 42.1688 25.0771V15.1028C42.1688 14.9578 42.2809 14.8462 42.4267 14.8462H48.0903C48.2361 14.8462 48.3483 14.9578 48.3483 15.1028V25.356C48.3483 30.5105 44.8155 33.8687 39.5108 33.8687C34.2173 33.8687 30.6621 30.5105 30.6621 25.356Z" fill="#333333"/>
<path d="M56.489 22.0424H63.0272C63.2067 22.0424 63.3412 21.8639 63.274 21.6965C62.6796 20.0788 61.4347 19.2085 59.6852 19.2085C58.003 19.2085 56.7918 20.0899 56.231 21.6965C56.1749 21.875 56.3095 22.0424 56.489 22.0424ZM69.487 23.8833C69.487 24.363 69.4534 24.8428 69.3861 25.3337C69.3749 25.4676 69.2515 25.568 69.1281 25.568H56.3544C56.1861 25.568 56.0516 25.7353 56.0964 25.8915C56.5675 27.7882 57.8459 28.77 59.6964 28.77C61.0871 28.77 62.2534 28.1675 62.8702 27.1634C62.9151 27.0853 62.9936 27.0407 63.0833 27.0407H68.7356C68.915 27.0407 69.0496 27.2192 68.9936 27.3865C67.6365 31.3807 64.0814 33.8687 59.6964 33.8687C54.089 33.8687 49.9395 29.6737 49.9395 24.0395C49.9395 18.3941 54.0553 14.2437 59.6964 14.2437C65.4833 14.2437 69.487 18.4833 69.487 23.8833Z" fill="#333333"/>
<path d="M83.9894 27.9667V32.9984C83.9894 33.1435 83.8772 33.255 83.7314 33.255H79.7389C75.7687 33.255 73.3575 30.7671 73.3575 26.6725V19.9783C73.3575 19.8333 73.2453 19.7217 73.0996 19.7217H70.7107C70.4752 19.7217 70.3631 19.4428 70.5201 19.2754L79.0996 10.7404C79.2678 10.5731 79.5482 10.6958 79.5482 10.9301V14.5784C79.5482 14.7234 79.6604 14.835 79.8062 14.835H83.6417C83.7875 14.835 83.8996 14.9466 83.8996 15.0916V19.454C83.8996 19.599 83.7875 19.7106 83.6417 19.7106H79.8062C79.6604 19.7106 79.5482 19.8221 79.5482 19.9672V25.5679C79.5482 26.8845 80.3221 27.6877 81.6342 27.6877H83.7426C83.866 27.7101 83.9894 27.8216 83.9894 27.9667Z" fill="#333333"/>
<path d="M69 9.4915C68.9983 9.32917 69.1303 9.19714 69.2926 9.19887L77.0684 9.28159C77.3248 9.28432 77.4514 9.59453 77.27 9.7759L69.577 17.4689C69.3957 17.6502 69.0855 17.5237 69.0827 17.2672L69 9.4915Z" fill="url(#paint0_linear_840_9399)"/>
<defs>
<linearGradient id="paint0_linear_840_9399" x1="73.5" y1="14" x2="69" y2="10" gradientUnits="userSpaceOnUse">
<stop stop-color="#C62C76"/>
<stop offset="1" stop-color="#EB6863"/>
</linearGradient>
</defs>
</svg>
