<svg width="74" height="41" viewBox="0 0 74 41" fill="none" xmlns="http://www.w3.org/2000/svg">
<path d="M7.30447 18.2932V22.697H2.10516V18.2932H0V28.2075H2.10516V23.5853H7.30447L7.30236 27.1427C7.30236 27.3654 7.34774 27.5496 7.43641 27.6919C7.52507 27.8295 7.638 27.9387 7.77205 28.0169C7.90187 28.0914 8.04489 28.1429 8.19952 28.1707C8.35098 28.1959 8.48292 28.2085 8.6043 28.2085H9.41122V18.2932" fill="#006499"/>
<path d="M48.4536 28.2085V18.2932H46.3938L42.2737 25.637L38.0718 18.2932H35.9883V28.2085H37.0617V20.5198L41.4852 28.2085H42.0341L46.341 20.5791V27.1401C46.341 27.3643 46.3896 27.5481 46.4793 27.6909C46.5664 27.8268 46.6788 27.935 46.8133 28.0143C46.9437 28.0914 47.0883 28.1429 47.2413 28.1681C47.3896 28.1933 47.5226 28.2085 47.6466 28.2085" fill="#006499"/>
<path d="M61.6582 28.208L56.395 18.0747H55.7781L50.3867 28.209H51.6174L53.2919 25.0563H57.1154L56.5866 24.0446H53.8297L55.6018 20.7129L59.0781 27.4204C59.2153 27.695 59.3863 27.8993 59.5868 28.0226C59.7884 28.1513 60.0528 28.208 60.3726 28.208" fill="#006499"/>
<path d="M72.6059 18.2932C72.5489 18.2932 72.4866 18.2974 72.4117 18.3084C72.3367 18.3237 72.265 18.3489 72.1995 18.3867C72.1283 18.4281 72.0702 18.4848 72.0269 18.5541C71.9789 18.6297 71.9552 18.7242 71.9552 18.8366V25.2275L64.9467 18.2932H63.5957V28.2074H64.8238V20.7329L71.9351 27.9617C72.2254 28.2284 72.6259 28.2074 73.0159 28.2074H73.1626V18.2932" fill="#006499"/>
<path d="M20.2039 14.3165C20.2039 14.3165 22.6574 12.9457 24.4934 12.1781C29.0219 10.287 33.0069 9.17561 36.6789 8.49152C39.6433 7.93974 48.6851 6.55739 55.8523 8.7661C55.9663 10.4078 55.5109 12.2931 54.5921 14.3165H57.5332C58.2573 12.8223 58.7491 11.3869 58.9755 10.045C60.0875 10.6372 61.1071 11.3554 61.9921 12.2275C62.8117 13.0349 63.6049 14.3165 63.6049 14.3165H64.9042C64.9042 14.3165 64.3501 13.0843 63.1236 11.8558C61.9852 10.7155 60.5719 9.84867 59.0853 9.1882C59.3075 6.57629 58.4346 4.36863 56.2091 2.84033C50.8858 -0.815296 40.3193 1.28421 30.5872 6.41721C26.2281 8.71675 22.2547 11.5103 18.9922 14.3165H20.2039ZM50.387 7.14173C45.6769 6.74745 40.3109 7.30343 36.7222 8.01901C32.3462 8.89315 28.2651 10.1106 24.4121 11.7702C23.5329 12.1493 22.6901 12.564 21.8499 13.005C24.5097 11.0341 27.5173 9.13676 30.7155 7.53496C39.7003 3.03301 49.13 1.32936 53.5804 4.59649C54.8074 5.49635 55.5098 6.66922 55.7621 8.04264C53.6253 7.48193 51.6367 7.24673 50.387 7.14173Z" fill="#00A7E4"/>
<path d="M17.3957 18.0747H16.7793L11.3789 28.208H12.6091L16.6025 20.7129L18.3298 24.0446H15.5581L15.0235 25.0563H18.8597L20.0729 27.4215C20.2102 27.6961 20.3811 27.9003 20.5817 28.0253C20.7838 28.1523 21.0477 28.209 21.3675 28.209H22.6636" fill="#006499"/>
<path d="M48.6133 33.5136H47.8117C42.5137 35.6924 36.3782 37.1288 30.1973 37.3682C32.8555 36.4369 35.6673 35.148 38.4944 33.5136H35.843C33.0476 35.085 30.2812 36.2993 27.6989 37.1225C27.4155 37.2128 27.1363 37.2973 26.8603 37.3782C22.3645 37.2118 18.798 36.2153 16.3219 34.6881C15.7313 34.3226 15.2136 33.9284 14.7508 33.5136H14.213C14.7619 34.0733 15.4089 34.5972 16.1588 35.0734C18.3447 36.461 21.3808 37.4459 25.161 37.8176C21.69 38.6078 18.8603 38.5474 16.7826 37.8596C14.7038 37.1703 13.1522 35.8572 12.5828 34.1321C12.5174 33.932 12.4625 33.7252 12.416 33.5136H12.0762C12.1305 33.7819 12.197 34.0454 12.2799 34.2985C12.9068 36.219 14.6241 37.6916 16.8454 38.4807C19.4846 39.4205 23.316 39.4168 28.1396 38.0271C28.1913 38.0119 28.243 37.9967 28.2942 37.9804C34.7337 38.0423 42.0356 36.5476 48.6133 33.5136Z" fill="#00A7E4"/>
<path d="M30.9325 27.4112L27.8279 23.6742H26.7492V28.205H24.6445V18.2913H28.5086C28.5086 18.2913 30.1035 18.2671 31.1479 18.7816C32.1923 19.2956 32.634 20.0175 32.634 20.9336C32.634 21.8498 32.0762 22.9307 30.0797 23.4736L34.1011 28.2066H32.4889C32.4889 28.2066 32.15 28.2076 31.7548 28.0764C31.3595 27.9441 30.9325 27.4112 30.9325 27.4112ZM26.7439 19.1617V22.9182H27.7181C27.7181 22.9182 28.6849 22.9318 29.3129 22.5779C29.9409 22.2236 30.3853 21.7311 30.3853 20.995C30.3853 20.2595 29.9061 19.608 29.2279 19.3497C29.2279 19.3497 28.8401 19.1617 28.1482 19.1617" fill="#006499"/>
</svg>
