<svg width="101" height="41" viewBox="0 0 101 41" fill="none" xmlns="http://www.w3.org/2000/svg">
<rect x="10.7168" y="6.27399" width="5.24419" height="28.5327" fill="#04C8B4"/>
<path d="M10.0324 7.6004C4.26493 9.07281 0 14.308 0 20.5403C0 26.7727 4.26493 32.0078 10.0324 33.4802V28.1885C7.08092 26.9081 5.01618 23.9656 5.01618 20.5403C5.01618 17.115 7.08092 14.1725 10.0324 12.8921V7.6004Z" fill="#04C8B4"/>
<path d="M21.6261 19.7743L16.4166 20.4262L21.1323 23.4685C20.3382 25.5856 18.7081 27.2933 16.6446 28.1885V33.4802C22.412 32.0078 26.677 26.7727 26.677 20.5403C26.677 20.0627 26.6519 19.5909 26.6031 19.1262L21.6257 19.7705C21.6259 19.7718 21.626 19.773 21.6261 19.7743Z" fill="#04C8B4"/>
<path d="M24.9557 13.9741L20.5675 16.4094C19.6778 14.8525 18.3008 13.6106 16.6446 12.8921V7.6004C20.2033 8.50894 23.19 10.8501 24.9557 13.9741Z" fill="#04C8B4"/>
<path d="M35.2537 15.1398H37.6984V26H35.2537V15.1398ZM40.0555 18.039C40.4525 17.9241 40.9644 17.8196 41.5912 17.7256C42.2181 17.6211 42.8763 17.5689 43.5658 17.5689C44.2658 17.5689 44.8456 17.6629 45.3053 17.851C45.7755 18.0286 46.1463 18.2845 46.418 18.6188C46.6896 18.9532 46.8829 19.3502 46.9978 19.8099C47.1127 20.2696 47.1702 20.7815 47.1702 21.3456V26H44.8352V21.6277C44.8352 20.8755 44.7359 20.3427 44.5374 20.0293C44.3389 19.7158 43.968 19.5591 43.4248 19.5591C43.2576 19.5591 43.08 19.5696 42.892 19.5905C42.7039 19.6009 42.5367 19.6166 42.3905 19.6375V26H40.0555V18.039ZM49.2054 15.704L51.5404 15.3279V17.7569H54.3455V19.7002H51.5404V22.5993C51.5404 23.0904 51.624 23.4822 51.7911 23.7747C51.9687 24.0672 52.3187 24.2135 52.8411 24.2135C53.0918 24.2135 53.3478 24.1926 53.609 24.1508C53.8806 24.0986 54.1261 24.0306 54.3455 23.9471L54.6746 25.7649C54.3926 25.8799 54.0791 25.9791 53.7344 26.0627C53.3896 26.1463 52.9665 26.1881 52.465 26.1881C51.8277 26.1881 51.3001 26.1045 50.8822 25.9373C50.4643 25.7597 50.13 25.5194 49.8792 25.2164C49.6285 24.903 49.4509 24.5269 49.3464 24.0881C49.2524 23.6493 49.2054 23.1635 49.2054 22.6307V15.704ZM55.5492 21.9412C55.5492 21.2098 55.6589 20.5725 55.8783 20.0293C56.1081 19.4755 56.4059 19.0159 56.7715 18.6502C57.1372 18.2845 57.5551 18.0077 58.0252 17.8196C58.5058 17.6316 58.9968 17.5375 59.4983 17.5375C60.6684 17.5375 61.593 17.898 62.2721 18.6188C62.9512 19.3293 63.2908 20.3793 63.2908 21.7688C63.2908 21.9046 63.2855 22.0561 63.2751 22.2232C63.2646 22.3799 63.2542 22.521 63.2437 22.6464H57.9469C57.9991 23.1269 58.2237 23.5083 58.6207 23.7904C59.0177 24.0724 59.5506 24.2135 60.2192 24.2135C60.6475 24.2135 61.0654 24.1769 61.4729 24.1038C61.8908 24.0202 62.2303 23.9209 62.4915 23.806L62.8049 25.7022C62.6796 25.7649 62.5124 25.8276 62.3035 25.8903C62.0945 25.953 61.8595 26.0052 61.5983 26.047C61.3475 26.0993 61.0759 26.141 60.7834 26.1724C60.4908 26.2037 60.1983 26.2194 59.9058 26.2194C59.164 26.2194 58.5163 26.1097 57.9625 25.8903C57.4193 25.6709 56.9648 25.3732 56.5991 24.997C56.2439 24.6105 55.9775 24.156 55.7999 23.6336C55.6327 23.1113 55.5492 22.5471 55.5492 21.9412ZM61.0341 21.0479C61.0237 20.8494 60.9871 20.6561 60.9244 20.4681C60.8722 20.28 60.7834 20.1128 60.658 19.9666C60.5431 19.8203 60.3916 19.7002 60.2035 19.6061C60.0259 19.5121 59.8013 19.4651 59.5297 19.4651C59.2685 19.4651 59.0439 19.5121 58.8558 19.6061C58.6677 19.6897 58.511 19.8046 58.3857 19.9509C58.2603 20.0972 58.161 20.2696 58.0879 20.4681C58.0252 20.6561 57.9782 20.8494 57.9469 21.0479H61.0341ZM70.0605 19.8255C69.8515 19.7733 69.606 19.7211 69.3239 19.6688C69.0419 19.6061 68.7389 19.5748 68.415 19.5748C68.2687 19.5748 68.0911 19.5905 67.8822 19.6218C67.6837 19.6427 67.5322 19.6688 67.4277 19.7002V26H65.0927V18.1957C65.5106 18.0495 66.0016 17.9136 66.5658 17.7883C67.1404 17.6525 67.7777 17.5845 68.4777 17.5845C68.6031 17.5845 68.7545 17.595 68.9322 17.6159C69.1098 17.6263 69.2874 17.6472 69.465 17.6786C69.6426 17.6995 69.8202 17.7308 69.9978 17.7726C70.1754 17.8039 70.3269 17.8457 70.4523 17.898L70.0605 19.8255ZM77.1576 17.0204C76.0188 17.0204 75.1935 17.339 74.6815 17.9763C74.1801 18.6032 73.9293 19.4651 73.9293 20.5621C73.9293 21.0949 73.992 21.5807 74.1174 22.0195C74.2427 22.4479 74.4308 22.8187 74.6815 23.1322C74.9323 23.4456 75.2457 23.6911 75.6218 23.8687C75.9979 24.0359 76.4367 24.1195 76.9382 24.1195C77.2098 24.1195 77.4397 24.1142 77.6277 24.1038C77.8262 24.0933 77.9986 24.0724 78.1449 24.0411V20.2643H80.5896V25.6396C80.2971 25.7545 79.8269 25.8746 79.1792 26C78.5314 26.1358 77.7322 26.2037 76.7815 26.2037C75.9666 26.2037 75.2248 26.0784 74.5562 25.8276C73.898 25.5769 73.3338 25.2112 72.8637 24.7306C72.3935 24.25 72.0279 23.6598 71.7667 22.9598C71.5159 22.2598 71.3906 21.4606 71.3906 20.5621C71.3906 19.6532 71.5316 18.8487 71.8137 18.1487C72.0958 17.4487 72.4823 16.8584 72.9734 16.3779C73.4644 15.8868 74.039 15.5159 74.6972 15.2652C75.3658 15.0145 76.0763 14.8891 76.8285 14.8891C77.3404 14.8891 77.8001 14.9257 78.2076 14.9988C78.6255 15.0615 78.9807 15.1398 79.2732 15.2339C79.5762 15.3174 79.8217 15.4062 80.0098 15.5003C80.2083 15.5943 80.3493 15.6674 80.4329 15.7197L79.7277 17.6786C79.3934 17.501 79.0068 17.3495 78.568 17.2241C78.1397 17.0883 77.6695 17.0204 77.1576 17.0204ZM82.3158 21.9412C82.3158 21.2098 82.4255 20.5725 82.6449 20.0293C82.8747 19.4755 83.1724 19.0159 83.5381 18.6502C83.9038 18.2845 84.3217 18.0077 84.7918 17.8196C85.2724 17.6316 85.7634 17.5375 86.2649 17.5375C87.435 17.5375 88.3596 17.898 89.0387 18.6188C89.7178 19.3293 90.0573 20.3793 90.0573 21.7688C90.0573 21.9046 90.0521 22.0561 90.0417 22.2232C90.0312 22.3799 90.0208 22.521 90.0103 22.6464H84.7135C84.7657 23.1269 84.9903 23.5083 85.3873 23.7904C85.7843 24.0724 86.3171 24.2135 86.9858 24.2135C87.4141 24.2135 87.832 24.1769 88.2395 24.1038C88.6574 24.0202 88.9969 23.9209 89.2581 23.806L89.5715 25.7022C89.4462 25.7649 89.279 25.8276 89.0701 25.8903C88.8611 25.953 88.626 26.0052 88.3649 26.047C88.1141 26.0993 87.8425 26.141 87.5499 26.1724C87.2574 26.2037 86.9649 26.2194 86.6724 26.2194C85.9306 26.2194 85.2828 26.1097 84.7291 25.8903C84.1859 25.6709 83.7314 25.3732 83.3657 24.997C83.0105 24.6105 82.7441 24.156 82.5665 23.6336C82.3993 23.1113 82.3158 22.5471 82.3158 21.9412ZM87.8007 21.0479C87.7902 20.8494 87.7537 20.6561 87.691 20.4681C87.6388 20.28 87.5499 20.1128 87.4246 19.9666C87.3097 19.8203 87.1582 19.7002 86.9701 19.6061C86.7925 19.5121 86.5679 19.4651 86.2962 19.4651C86.0351 19.4651 85.8104 19.5121 85.6224 19.6061C85.4343 19.6897 85.2776 19.8046 85.1522 19.9509C85.0269 20.0972 84.9276 20.2696 84.8545 20.4681C84.7918 20.6561 84.7448 20.8494 84.7135 21.0479H87.8007ZM99.5695 21.8628C99.5695 22.5105 99.4755 23.106 99.2875 23.6493C99.0994 24.1821 98.8278 24.6418 98.4725 25.0284C98.1173 25.4045 97.689 25.697 97.1875 25.906C96.6965 26.1149 96.1428 26.2194 95.5264 26.2194C94.9204 26.2194 94.3667 26.1149 93.8652 25.906C93.3742 25.697 92.9511 25.4045 92.5958 25.0284C92.2406 24.6418 91.9638 24.1821 91.7653 23.6493C91.5668 23.106 91.4675 22.5105 91.4675 21.8628C91.4675 21.2151 91.5668 20.6248 91.7653 20.0919C91.9742 19.5591 92.2563 19.1047 92.6115 18.7285C92.9772 18.3524 93.4055 18.0599 93.8965 17.851C94.398 17.642 94.9413 17.5375 95.5264 17.5375C96.1219 17.5375 96.6651 17.642 97.1562 17.851C97.6576 18.0599 98.086 18.3524 98.4412 18.7285C98.7964 19.1047 99.0733 19.5591 99.2718 20.0919C99.4703 20.6248 99.5695 21.2151 99.5695 21.8628ZM97.1875 21.8628C97.1875 21.1419 97.0412 20.5778 96.7487 20.1703C96.4666 19.7524 96.0592 19.5435 95.5264 19.5435C94.9935 19.5435 94.5809 19.7524 94.2883 20.1703C93.9958 20.5778 93.8495 21.1419 93.8495 21.8628C93.8495 22.5837 93.9958 23.1583 94.2883 23.5866C94.5809 24.0045 94.9935 24.2135 95.5264 24.2135C96.0592 24.2135 96.4666 24.0045 96.7487 23.5866C97.0412 23.1583 97.1875 22.5837 97.1875 21.8628Z" fill="#333333"/>
</svg>
