<svg width="38" height="41" viewBox="0 0 38 41" fill="none" xmlns="http://www.w3.org/2000/svg">
<g clip-path="url(#clip0_837_9187)">
<g clip-path="url(#clip1_837_9187)">
<path fill-rule="evenodd" clip-rule="evenodd" d="M36.9996 31.9452C36.4482 31.9452 35.9994 31.4964 35.9994 30.9396C35.9994 30.3867 36.4482 29.9338 36.9996 29.9338C37.551 29.9338 38.0002 30.3867 38.0002 30.9396C38.0002 31.4964 37.551 31.9452 36.9996 31.9452ZM36.9996 30.126C36.5513 30.126 36.1877 30.4902 36.1877 30.9396C36.1877 31.3924 36.5513 31.757 36.9996 31.757C37.4488 31.757 37.8115 31.3924 37.8115 30.9396C37.8115 30.4902 37.4488 30.126 36.9996 30.126ZM37.2543 31.5082L36.9702 31.0194H36.805V31.5082H36.6168V30.3704H37.0353C37.3139 30.3704 37.4635 30.4645 37.4635 30.704C37.4635 30.9105 37.3344 30.9923 37.1589 31.011L37.4708 31.5082H37.2543ZM37.2733 30.6877C37.2733 30.5523 37.1457 30.5271 37.0353 30.5271H36.805V30.8617H37.0318C37.1648 30.8617 37.2733 30.8425 37.2733 30.6877ZM0.261864 37.3076C0.393386 37.1759 0.514092 37.0986 0.715989 37.0986C1.04739 37.0986 1.27762 37.3563 1.27762 37.7254C1.27762 38.1576 0.999511 38.435 0.573219 38.435C0.421724 38.435 0.298061 38.4064 0.126953 38.3379L0.126953 36.4575H0.261864L0.261864 37.3076ZM0.261864 38.2408C0.373773 38.2837 0.472054 38.3005 0.570335 38.3005C0.898779 38.3005 1.13442 38.063 1.13442 37.7338C1.13442 37.4308 0.952065 37.213 0.699333 37.213C0.542429 37.213 0.413431 37.2874 0.261864 37.4622L0.261864 38.2408ZM1.60008 37.1243L2.0576 38.0231L2.49269 37.1243H2.63005L1.68712 39.0678H1.54975L1.99018 38.1606L1.45977 37.1243H1.60008ZM4.5943 36.0628H6.82094V34.108H7.72284L7.72284 38.5098H7.37724C7.32539 38.5098 7.26872 38.5044 7.20418 38.4931C7.1377 38.4808 7.07655 38.4581 7.02089 38.4246C6.96371 38.3901 6.91525 38.3418 6.87718 38.2807C6.83904 38.2176 6.81993 38.1358 6.81993 38.0363L6.82094 36.4575H4.5943L4.5943 38.5098H3.6929V34.108H4.5943V36.0628ZM11.1429 34.0102L13.3989 38.5096H12.8435C12.7067 38.5096 12.5938 38.4844 12.5072 38.4278C12.4212 38.3726 12.3479 38.2824 12.2892 38.1602L11.7696 37.1101H10.1271L10.3559 36.6613H11.5427L10.8037 35.1815L9.09322 38.5091H8.56678L10.8789 34.0102H11.1429ZM17.0312 34.3246C17.478 34.5527 17.6672 34.8735 17.6672 35.2801C17.6672 35.6871 17.4286 36.167 16.5737 36.4084L18.2958 38.5091L17.6051 38.5091C17.6051 38.5091 17.4599 38.5101 17.2908 38.4514C17.1216 38.3928 16.9388 38.1563 16.9388 38.1563L15.6097 36.4971H15.1477V38.5086H14.2463V34.1073H15.901C15.901 34.1073 16.5839 34.0964 17.0312 34.3246ZM15.1452 34.4941V36.1616H15.5622C15.5622 36.1616 15.9763 36.168 16.2452 36.0108C16.5145 35.8536 16.7047 35.6348 16.7047 35.3081C16.7047 34.9814 16.4993 34.6917 16.209 34.5774C16.209 34.5774 16.0428 34.4941 15.7465 34.4941H15.1452ZM21.7953 37.3679L23.5595 34.1079H24.4414V38.5097H24.0958C24.0429 38.5097 23.9863 38.5033 23.9222 38.4924C23.8567 38.4806 23.7951 38.4574 23.7389 38.4239C23.6817 38.3889 23.6333 38.3402 23.5962 38.2796C23.5575 38.217 23.537 38.1352 23.537 38.0356V35.1224L21.6926 38.5097H21.4575L19.5638 35.0958V38.5097H19.1038V34.1079H19.9964L21.7953 37.3679ZM27.8416 34.0101L30.0951 38.5094H29.5446C29.4078 38.5094 29.2944 38.4838 29.2078 38.4271C29.1223 38.3719 29.049 38.2818 28.9904 38.1596L27.5018 35.1818L26.7427 36.6611H27.9237L28.15 37.11H26.5129L25.7958 38.51H25.2688L27.5772 34.0101H27.8416ZM34.506 37.1865V34.3487C34.506 34.299 34.5162 34.2566 34.5363 34.2235C34.5549 34.193 34.5803 34.1678 34.6105 34.1492C34.6385 34.1324 34.6692 34.121 34.7015 34.1146C34.7333 34.1097 34.7602 34.1077 34.7846 34.1077H35.0227V38.5096H34.96C34.7934 38.5096 34.6218 38.519 34.4972 38.4002L31.4522 35.1908V38.5096H30.9263V34.1077H31.505L34.506 37.1865Z" fill="#FF4612"/>
<path d="M18.5914 16.5861C19.311 16.5861 19.4909 16.464 19.4909 14.5658C19.4909 12.6682 19.311 12.517 18.5914 12.517H17.5106V16.5832L18.5914 16.5861Z" fill="#FF4612"/>
<path d="M19.4909 20.0626C19.4909 18.164 19.4909 17.6081 18.7097 17.6081H17.5106V22.4869L18.7097 22.4894C19.4909 22.4894 19.4909 21.9597 19.4909 20.0626Z" fill="#FF4612"/>
<path fill-rule="evenodd" clip-rule="evenodd" d="M35.38 3.00006H0V31.6701H35.38V3.00006ZM28.9059 23.4819H22.9089V11.3728H24.8881V21.734C24.8881 22.2993 25.3452 22.7595 25.9079 22.7595C26.471 22.7595 26.9276 22.2993 26.9276 21.734L26.9261 19.626H28.9059V23.4819ZM15.5338 23.4819V11.3728H19.4909C20.2544 11.3728 21.4692 12.005 21.4692 13.3458V15.4085C21.4692 16.0116 20.9447 17.0804 20.1654 17.0804C20.9447 17.0804 21.4692 17.7575 21.4692 18.2704V21.9001C21.4692 22.5175 20.975 23.4819 19.4909 23.4819H15.5338ZM11.0339 23.6617C8.81562 23.6617 8.03593 22.246 8.03593 21.3728V19.626H10.0137L10.0152 21.734C10.0152 22.2993 10.4718 22.7595 11.0354 22.7595C11.5985 22.7595 12.0541 22.2854 12.0541 21.7202L12.0531 11.3728H14.0329V21.3728C14.0329 22.5786 13.2528 23.6617 11.0339 23.6617ZM9.02519 18.3071C9.65677 18.3071 10.17 17.7912 10.17 17.157C10.17 16.5199 9.65677 16.006 9.02519 16.006C8.39167 16.006 7.87986 16.5199 7.87986 17.157C7.87986 17.7912 8.39167 18.3071 9.02519 18.3071ZM10.854 11.3727L9.02529 15.5592L7.19609 11.3727H10.854Z" fill="#FF4612"/>
</g>
</g>
<defs>
<clipPath id="clip0_837_9187">
<rect width="38" height="41" fill="white"/>
</clipPath>
<clipPath id="clip1_837_9187">
<rect width="38" height="36.0678" fill="white" transform="translate(0 3)"/>
</clipPath>
</defs>
</svg>
