<svg width="111" height="41" viewBox="0 0 111 41" fill="none" xmlns="http://www.w3.org/2000/svg">
<path d="M0.0175781 7.00003H13.8012V19.837H0.0175781V7.00003Z" fill="#F25022"/>
<path d="M15.2676 7H29.0512V19.837H15.2676V7Z" fill="#7FBA00"/>
<path d="M0 21.2957H13.7836V34.1327H0V21.2957Z" fill="#00A4EF"/>
<path d="M15.2676 21.2957H29.0512V34.1327H15.2676V21.2957Z" fill="#FFB900"/>
<path d="M41.5411 15.9824L40.9023 17.6729H40.849C40.7425 17.2917 40.5473 16.7116 40.2279 16.0156L36.8031 7.97779H33.4492V20.7885H35.6674V12.8833C35.6674 12.3861 35.6674 11.8227 35.6496 11.1266C35.6319 10.7786 35.5964 10.5134 35.5787 10.3146H35.6319C35.7384 10.8117 35.8626 11.1763 35.9513 11.4084L40.0682 20.7554H41.6298L45.7112 11.3255C45.8 11.11 45.8887 10.6792 45.9774 10.3146H46.0306C45.9774 11.2592 45.9419 12.1044 45.9242 12.6182V20.7388H48.2843V7.94465H45.0547L41.5411 15.9824ZM50.5202 11.5575H52.8271V20.7388H50.5202V11.5575ZM51.6914 7.67948C51.301 7.67948 50.9816 7.81206 50.7154 8.04408C50.4492 8.2761 50.3073 8.57441 50.3073 8.93901C50.3073 9.28704 50.4492 9.58535 50.7154 9.81737C50.9816 10.0494 51.301 10.1654 51.6914 10.1654C52.0818 10.1654 52.419 10.0328 52.6674 9.81737C52.9336 9.58535 53.0755 9.28704 53.0755 8.93901C53.0755 8.59098 52.9336 8.29267 52.6674 8.04408C52.4367 7.81206 52.0995 7.67948 51.6914 7.67948ZM61.0077 11.4746C60.5818 11.3918 60.1382 11.3421 59.7123 11.3421C58.6653 11.3421 57.7071 11.5575 56.9085 11.9884C56.11 12.4193 55.4712 13.0159 55.063 13.7617C54.6371 14.524 54.4242 15.4024 54.4242 16.4133C54.4242 17.2917 54.6371 18.0706 55.0453 18.7832C55.4534 19.4793 56.0213 20.0428 56.7843 20.4239C57.5119 20.8051 58.3636 21.004 59.3219 21.004C60.4221 21.004 61.3626 20.7885 62.1079 20.3908L62.1256 20.3742V18.3855L62.0369 18.4518C61.6998 18.6838 61.3094 18.8827 60.919 18.9987C60.5108 19.1313 60.1382 19.1975 59.8188 19.1975C58.896 19.1975 58.1684 18.949 57.6538 18.4021C57.1215 17.8717 56.8553 17.1425 56.8553 16.231C56.8553 15.2864 57.1215 14.5406 57.6716 13.9937C58.2217 13.4468 58.9492 13.1651 59.8365 13.1651C60.5818 13.1651 61.3449 13.3971 62.0369 13.8611L62.1256 13.9274V11.8227L62.1079 11.8061C61.8062 11.6901 61.4691 11.5575 61.0077 11.4746ZM68.6204 11.4084C68.0526 11.4084 67.5202 11.5741 67.0588 11.9221C66.6684 12.2204 66.4023 12.6513 66.1716 13.1651H66.1538V11.5575H63.8469V20.7388H66.1538V16.0487C66.1538 15.2532 66.3313 14.5903 66.7217 14.1097C67.1121 13.6125 67.6089 13.3639 68.2123 13.3639C68.4252 13.3639 68.6382 13.4137 68.9044 13.4468C69.1528 13.5131 69.3302 13.5794 69.4545 13.6622L69.5432 13.7285V11.5741L69.49 11.5575C69.3302 11.4581 69.0108 11.4084 68.6204 11.4084ZM74.9023 11.3586C73.2875 11.3586 71.992 11.8061 71.087 12.6845C70.1643 13.5628 69.7206 14.7726 69.7206 16.2973C69.7206 17.7226 70.182 18.8827 71.0693 19.7279C71.9565 20.5565 73.1632 20.9874 74.6716 20.9874C76.2509 20.9874 77.5108 20.5399 78.4158 19.645C79.3386 18.7501 79.7822 17.5568 79.7822 16.0819C79.7822 14.6235 79.3563 13.4634 78.4868 12.6182C77.6528 11.773 76.4284 11.3586 74.9023 11.3586ZM76.7478 18.4186C76.3219 18.9324 75.6476 19.181 74.8135 19.181C73.9795 19.181 73.3052 18.9324 72.8261 18.3855C72.3469 17.8717 72.1163 17.126 72.1163 16.1813C72.1163 15.2035 72.3647 14.4577 72.8261 13.9274C73.3052 13.3971 73.9618 13.1319 74.7958 13.1319C75.6121 13.1319 76.2509 13.3805 76.7123 13.8943C77.1737 14.408 77.4221 15.1538 77.4221 16.1316C77.3866 17.126 77.1914 17.9049 76.7478 18.4186ZM84.9284 15.3692C84.2008 15.0875 83.7394 14.8721 83.5265 14.6898C83.349 14.524 83.2603 14.292 83.2603 13.9937C83.2603 13.7451 83.3668 13.4965 83.633 13.3308C83.8991 13.1651 84.2008 13.0822 84.6444 13.0822C85.0348 13.0822 85.443 13.1485 85.8334 13.2479C86.2238 13.3474 86.5787 13.4965 86.8626 13.6954L86.9513 13.7617V11.7398L86.8981 11.7232C86.6319 11.6238 86.277 11.5244 85.8511 11.4415C85.4252 11.3752 85.0348 11.3421 84.7154 11.3421C83.6152 11.3421 82.7102 11.5907 82.0004 12.1376C81.2906 12.6513 80.9534 13.3474 80.9534 14.1594C80.9534 14.5903 81.0244 14.9715 81.1841 15.2864C81.3438 15.6013 81.5745 15.8996 81.8939 16.1482C82.2133 16.3802 82.6747 16.6453 83.3136 16.8939C83.8459 17.1094 84.2541 17.2751 84.5025 17.4077C84.7509 17.5403 84.9106 17.6894 85.0348 17.8054C85.1236 17.938 85.1768 18.1037 85.1768 18.3192C85.1768 18.9324 84.6799 19.2307 83.6685 19.2307C83.2781 19.2307 82.8699 19.1644 82.3908 19.0152C81.9117 18.8661 81.468 18.6506 81.0954 18.4021L81.0067 18.3358V20.4405L81.0599 20.4571C81.3971 20.6062 81.8052 20.7057 82.3021 20.8217C82.7989 20.9045 83.2426 20.9708 83.633 20.9708C84.8219 20.9708 85.7979 20.7222 86.49 20.1753C87.1998 19.645 87.5724 18.9655 87.5724 18.0872C87.5724 17.474 87.395 16.9271 87.0046 16.5128C86.49 16.115 85.8511 15.7007 84.9284 15.3692ZM93.6591 11.3586C92.0442 11.3586 90.7488 11.8061 89.8438 12.6845C88.9388 13.5628 88.4774 14.7726 88.4774 16.2973C88.4774 17.7226 88.9388 18.8827 89.8261 19.7279C90.7133 20.5565 91.92 20.9874 93.4284 20.9874C95.0077 20.9874 96.2676 20.5399 97.1726 19.645C98.0954 18.7501 98.539 17.5568 98.539 16.0819C98.539 14.6235 98.1131 13.4634 97.2436 12.6182C96.4096 11.773 95.1852 11.3586 93.6591 11.3586ZM95.4868 18.4186C95.0609 18.9324 94.3866 19.181 93.5526 19.181C92.7008 19.181 92.0442 18.9324 91.5651 18.3855C91.086 17.8717 90.8553 17.126 90.8553 16.1813C90.8553 15.2035 91.1037 14.4577 91.5651 13.9274C92.0442 13.3971 92.7008 13.1319 93.5349 13.1319C94.3334 13.1319 94.99 13.3805 95.4513 13.8943C95.9127 14.408 96.1612 15.1538 96.1612 16.1316C96.1612 17.126 95.9305 17.9049 95.4868 18.4186ZM110.872 13.3308V11.5575H108.547V8.83958L108.476 8.85615L106.276 9.46934L106.223 9.48591V11.5575H102.745V10.3974C102.745 9.86709 102.887 9.45277 103.135 9.1876C103.383 8.92244 103.756 8.78986 104.218 8.78986C104.537 8.78986 104.874 8.85615 105.247 9.0053L105.335 9.05502V7.1823L105.282 7.16573C104.963 7.06629 104.537 7 103.987 7C103.295 7 102.691 7.14915 102.141 7.39775C101.591 7.67948 101.183 8.06066 100.881 8.57441C100.58 9.07159 100.42 9.63507 100.42 10.2814V11.5575H98.8052V13.3142H100.42V20.7388H102.745V13.3308H106.223V18.054C106.223 19.993 107.199 20.9708 109.151 20.9708C109.47 20.9708 109.807 20.9211 110.127 20.8714C110.464 20.8051 110.712 20.7222 110.854 20.656L110.872 20.6394V18.8661L110.783 18.9324C110.641 19.0152 110.517 19.0815 110.304 19.1313C110.127 19.181 109.967 19.1975 109.843 19.1975C109.381 19.1975 109.062 19.0981 108.831 18.8495C108.618 18.6175 108.512 18.2363 108.512 17.6729V13.3308H110.872Z" fill="#575757"/>
<path d="M41.2309 33.4408C40.2144 34.0149 39.0849 34.302 37.8425 34.302C36.3978 34.302 35.2283 33.8361 34.3342 32.9043C33.4447 31.9725 33 30.7395 33 29.2053C33 27.6382 33.4941 26.3535 34.4824 25.3511C35.4754 24.344 36.7319 23.8405 38.2519 23.8405C39.3532 23.8405 40.2779 24.0193 41.0262 24.3769V25.6899C40.2073 25.1723 39.2379 24.9134 38.1178 24.9134C36.9837 24.9134 36.0542 25.304 35.3295 26.0852C34.6048 26.8664 34.2424 27.8782 34.2424 29.1206C34.2424 30.4007 34.5789 31.4078 35.2518 32.1419C35.9248 32.8714 36.8378 33.2361 37.9908 33.2361C38.7814 33.2361 39.4661 33.0784 40.0449 32.7631V29.9254H37.8284V28.8524H41.2309V33.4408Z" fill="#DFA200"/>
<path d="M46.4546 34.302C45.3863 34.302 44.5322 33.9655 43.8921 33.2925C43.2568 32.6149 42.9392 31.7184 42.9392 30.603C42.9392 29.3889 43.2709 28.4406 43.9345 27.7582C44.598 27.0759 45.4945 26.7347 46.624 26.7347C47.7017 26.7347 48.5417 27.0665 49.1441 27.73C49.7512 28.3936 50.0547 29.3136 50.0547 30.4901C50.0547 31.6431 49.7276 32.5678 49.0735 33.2643C48.4241 33.9561 47.5511 34.302 46.4546 34.302ZM46.5393 27.7088C45.7957 27.7088 45.2075 27.963 44.7745 28.4712C44.3416 28.9748 44.1251 29.6712 44.1251 30.5607C44.1251 31.4172 44.3439 32.0925 44.7816 32.5866C45.2192 33.0808 45.8051 33.3278 46.5393 33.3278C47.2876 33.3278 47.8617 33.0855 48.2617 32.6008C48.6664 32.116 48.8688 31.4266 48.8688 30.5325C48.8688 29.6289 48.6664 28.9324 48.2617 28.443C47.8617 27.9535 47.2876 27.7088 46.5393 27.7088Z" fill="#DFA200"/>
<path d="M53.0619 34.1326H51.9042V23.431H53.0619V34.1326Z" fill="#DFA200"/>
<path d="M61.5751 34.1326H60.4174V32.9043H60.3892C59.8527 33.8361 59.0244 34.302 57.9044 34.302C56.9961 34.302 56.269 33.9796 55.7231 33.3349C55.1819 32.6855 54.9113 31.8031 54.9113 30.6878C54.9113 29.4924 55.2125 28.5347 55.8149 27.8147C56.4173 27.0947 57.2197 26.7347 58.222 26.7347C59.215 26.7347 59.9374 27.1253 60.3892 27.9065H60.4174V23.431H61.5751V34.1326ZM60.4174 30.8642V29.7983C60.4174 29.2148 60.2245 28.7206 59.8386 28.3159C59.4527 27.9112 58.9632 27.7088 58.3703 27.7088C57.6644 27.7088 57.1091 27.9677 56.7043 28.4853C56.2996 29.003 56.0973 29.7183 56.0973 30.6313C56.0973 31.4642 56.2902 32.1231 56.6761 32.6078C57.0667 33.0878 57.5891 33.3278 58.2432 33.3278C58.8879 33.3278 59.4103 33.0949 59.8103 32.629C60.2151 32.1631 60.4174 31.5748 60.4174 30.8642Z" fill="#DFA200"/>
<path d="M66.6488 30.3067V34.1327H65.4629V24.01H68.2442C69.3266 24.01 70.1642 24.2736 70.7572 24.8007C71.3549 25.3277 71.6537 26.0713 71.6537 27.0313C71.6537 27.9914 71.3219 28.7773 70.6584 29.389C69.9995 30.0008 69.1077 30.3067 67.983 30.3067H66.6488ZM66.6488 25.083V29.2337H67.8912C68.7101 29.2337 69.3336 29.0479 69.7619 28.6761C70.1948 28.2996 70.4113 27.7702 70.4113 27.0878C70.4113 25.7513 69.6207 25.083 68.0394 25.083H66.6488Z" fill="#575757"/>
<path d="M78.0916 34.1327H76.9339V33.0033H76.9056C76.4021 33.8692 75.6609 34.3022 74.682 34.3022C73.962 34.3022 73.3973 34.1116 72.9879 33.7304C72.5831 33.3492 72.3808 32.8433 72.3808 32.2127C72.3808 30.862 73.1761 30.0761 74.7667 29.8549L76.9339 29.5514C76.9339 28.3231 76.4374 27.709 75.4444 27.709C74.5738 27.709 73.7879 28.0055 73.0867 28.5984V27.4125C73.7973 26.9607 74.6161 26.7348 75.5432 26.7348C77.2421 26.7348 78.0916 27.6337 78.0916 29.4314V34.1327ZM76.9339 30.4761L75.1903 30.7162C74.6538 30.7915 74.2491 30.9256 73.9761 31.1185C73.7032 31.3068 73.5667 31.6432 73.5667 32.128C73.5667 32.4809 73.6914 32.7703 73.9408 32.9962C74.195 33.2174 74.5314 33.328 74.9503 33.328C75.5244 33.328 75.9974 33.128 76.3691 32.728C76.7456 32.3233 76.9339 31.8127 76.9339 31.1962V30.4761Z" fill="#575757"/>
<path d="M84.0424 28.0761C83.84 27.9208 83.5482 27.8431 83.167 27.8431C82.6729 27.8431 82.2588 28.0761 81.9246 28.542C81.5952 29.0079 81.4305 29.6432 81.4305 30.4479V34.1327H80.2728V26.9043H81.4305V28.3937H81.4587C81.6234 27.8855 81.8752 27.4902 82.2141 27.2078C82.5529 26.9207 82.9317 26.7772 83.3506 26.7772C83.6518 26.7772 83.8823 26.8101 84.0424 26.876V28.0761Z" fill="#575757"/>
<path d="M88.6519 34.0622C88.379 34.2127 88.019 34.288 87.5719 34.288C86.306 34.288 85.673 33.5821 85.673 32.1703V27.8925H84.4306V26.9043H85.673V25.1395L86.8307 24.7654V26.9043H88.6519V27.8925H86.8307V31.9656C86.8307 32.4503 86.913 32.7962 87.0778 33.0033C87.2425 33.2104 87.5154 33.3139 87.8966 33.3139C88.1884 33.3139 88.4402 33.2339 88.6519 33.0739V34.0622Z" fill="#575757"/>
<path d="M96.1981 34.1327H95.0404V30.0102C95.0404 28.4761 94.4804 27.709 93.3603 27.709C92.7815 27.709 92.3015 27.9278 91.9203 28.3655C91.5438 28.7984 91.3555 29.3467 91.3555 30.0102V34.1327H90.1979V26.9043H91.3555V28.1043H91.3838C91.9297 27.1913 92.7203 26.7348 93.7556 26.7348C94.5462 26.7348 95.151 26.9913 95.5698 27.5043C95.9886 28.0125 96.1981 28.749 96.1981 29.7138V34.1327Z" fill="#575757"/>
<path d="M104.196 30.8079H99.0923C99.1111 31.6127 99.3276 32.2339 99.7417 32.6715C100.156 33.1092 100.725 33.328 101.45 33.328C102.264 33.328 103.012 33.0598 103.695 32.5233V33.6104C103.059 34.0716 102.219 34.3022 101.175 34.3022C100.153 34.3022 99.3511 33.9751 98.7676 33.3209C98.184 32.6621 97.8922 31.7374 97.8922 30.5467C97.8922 29.422 98.2099 28.5067 98.8452 27.8008C99.4852 27.0901 100.278 26.7348 101.224 26.7348C102.17 26.7348 102.902 27.0407 103.419 27.6525C103.937 28.2643 104.196 29.1137 104.196 30.2008V30.8079ZM103.01 29.8267C103.005 29.1585 102.843 28.6384 102.523 28.2667C102.208 27.8949 101.768 27.709 101.203 27.709C100.657 27.709 100.193 27.9043 99.8123 28.2949C99.4311 28.6855 99.1958 29.1961 99.1064 29.8267H103.01Z" fill="#575757"/>
<path d="M109.723 28.0761C109.521 27.9208 109.229 27.8431 108.848 27.8431C108.354 27.8431 107.94 28.0761 107.606 28.542C107.276 29.0079 107.111 29.6432 107.111 30.4479V34.1327H105.954V26.9043H107.111V28.3937H107.14C107.304 27.8855 107.556 27.4902 107.895 27.2078C108.234 26.9207 108.613 26.7772 109.031 26.7772C109.333 26.7772 109.563 26.8101 109.723 26.876V28.0761Z" fill="#575757"/>
</svg>
