<svg width="148" height="41" viewBox="0 0 148 41" fill="none" xmlns="http://www.w3.org/2000/svg">
<g clip-path="url(#clip0_840_9298)">
<path d="M27.1181 32.4029C26.1918 32.4227 25.2939 32.0877 24.6135 31.4686C23.933 30.8496 23.5232 29.9947 23.4704 29.0841C23.4054 27.103 25.2845 25.186 27.3457 25.1252C29.2249 25.0675 31.0617 26.751 31.1138 28.5624C31.169 30.5083 29.2346 32.3645 27.1181 32.4029Z" fill="#25C8E0"/>
<path d="M20.6896 28.6104C20.6896 30.5307 18.921 32.3837 17.0386 32.4349C16.646 32.4501 16.2543 32.3867 15.8873 32.2484C15.5203 32.1102 15.1856 31.9001 14.9035 31.6308C14.6214 31.3615 14.3978 31.0386 14.2462 30.6817C14.0946 30.3248 14.0182 29.9414 14.0216 29.5545C14.0216 27.5671 15.8845 25.6884 17.8384 25.714C18.6042 25.7333 19.3318 26.0474 19.8649 26.589C20.398 27.1305 20.6941 27.8563 20.6896 28.6104V28.6104Z" fill="#25C8E0"/>
<path d="M27.1188 23.2273C25.2559 23.2273 23.9912 22.12 24.014 20.507C24.0367 18.7819 25.9646 17.1113 27.8763 17.1401C29.5344 17.1657 30.8673 18.3819 30.8673 19.8669C30.8673 21.7743 29.2613 23.2273 27.1188 23.2273Z" fill="#25C8E0"/>
<path d="M17.8458 23.8418C16.373 23.8418 15.3099 22.8625 15.3066 21.5151C15.3066 19.8093 17.0948 18.0618 18.8829 18.0266C19.2211 18.0019 19.5607 18.048 19.8795 18.1619C20.1983 18.2758 20.4889 18.4549 20.7322 18.6875C20.9755 18.92 21.166 19.2007 21.291 19.511C21.4161 19.8214 21.4729 20.1542 21.4577 20.4877C21.4577 22.2896 19.7769 23.8514 17.8458 23.8418Z" fill="#25C8E0"/>
<path d="M12.5696 28.6969C12.5923 30.5819 10.879 32.435 9.10062 32.4446C7.75791 32.4446 6.79558 31.4172 6.76632 29.9322C6.72731 28.0792 8.32686 26.3477 10.115 26.3061C10.4387 26.2928 10.7618 26.3453 11.064 26.4604C11.3662 26.5755 11.6411 26.7506 11.8714 26.975C12.1018 27.1993 12.2827 27.468 12.4028 27.7643C12.5229 28.0606 12.5797 28.378 12.5696 28.6969V28.6969Z" fill="#25C8E0"/>
<path d="M27.2869 15.2518C25.7004 15.2678 24.6568 14.4357 24.6145 13.1203C24.5625 11.4529 26.1913 10.0415 28.2135 9.99993C29.7903 9.97112 30.8371 10.8064 30.8859 12.1282C30.9347 13.7956 29.2831 15.2294 27.2869 15.2518Z" fill="#25C8E0"/>
<path d="M5.15999 28.9657C5.07547 30.7259 3.46942 32.4541 1.95115 32.4221C0.783998 32.4029 -0.103556 31.174 0.000479711 29.753C0.104515 28.332 1.85361 26.6518 3.25159 26.6742C4.46101 26.6902 5.22827 27.6215 5.15999 28.9657Z" fill="#25C8E0"/>
<path d="M19.8968 11.2801C21.259 11.2545 22.1336 12.0066 22.1531 13.2292C22.1823 14.8006 20.4332 16.4008 18.7004 16.4008C18.4164 16.4182 18.1318 16.3773 17.8647 16.2806C17.5976 16.1839 17.3539 16.0335 17.149 15.839C16.9442 15.6446 16.7826 15.4103 16.6747 15.1511C16.5668 14.8919 16.5148 14.6134 16.5222 14.3334C16.5287 12.81 18.1802 11.3153 19.8968 11.2801Z" fill="#25C8E0"/>
<path d="M13.7492 21.2719C13.6874 22.8017 11.8961 24.4915 10.4038 24.3475C9.15211 24.2259 8.46938 23.4546 8.45312 22.2256C8.45312 20.7118 10.199 19.0604 11.74 19.0604C12.9397 19.0636 13.8012 20.0141 13.7492 21.2719Z" fill="#25C8E0"/>
<path d="M11.5025 17.4569C10.5889 17.4569 9.81192 16.8872 9.76315 15.6647C9.70463 14.1605 11.4505 12.5603 13.0858 12.5251C14.3342 12.5027 15.0365 13.1203 15.1242 14.3109C15.2218 15.7607 13.4076 17.4313 11.5025 17.4569Z" fill="#25C8E0"/>
<path d="M7.12139 21.6079C7.12139 23.2529 5.53485 24.8627 3.92555 24.8435C2.70963 24.8275 2.17645 24.1682 2.1797 23.0097C2.1797 21.4319 3.85403 19.6972 5.36254 19.7132C6.3964 19.726 7.12139 20.507 7.12139 21.6079Z" fill="#25C8E0"/>
<path d="M7.00896 13.77C8.09158 13.8084 8.54998 14.4101 8.48821 15.4246C8.40693 16.8168 6.76512 18.321 5.41916 18.1898C4.46333 18.097 3.97242 17.5145 3.98867 16.5896C4.01143 15.1654 5.57522 13.7316 7.00896 13.77Z" fill="#25C8E0"/>
</g>
<path d="M40.6726 16.5103C42.4938 16.5103 43.4043 17.5114 43.4043 19.5137V24.2829H42.1819V19.5741C42.1819 18.8698 42.041 18.3566 41.7593 18.0347C41.4775 17.7026 41.0348 17.5366 40.4311 17.5366C39.7268 17.5366 39.1634 17.7529 38.7408 18.1856C38.3182 18.6182 38.1069 19.2018 38.1069 19.9363V24.2829H36.8844V18.8195C36.8844 18.0347 36.8442 17.3253 36.7637 16.6914H37.9258L38.0465 18.0497C38.2779 17.5567 38.6251 17.1794 39.0879 16.9178C39.5507 16.6461 40.079 16.5103 40.6726 16.5103Z" fill="#363E4E"/>
<path d="M48.3993 24.3886C47.685 24.3886 47.0561 24.2276 46.5128 23.9056C45.9695 23.5836 45.5469 23.1258 45.245 22.5322C44.9532 21.9386 44.8073 21.2443 44.8073 20.4494C44.8073 19.6546 44.9532 18.9603 45.245 18.3667C45.5469 17.7731 45.9695 17.3152 46.5128 16.9933C47.0561 16.6713 47.685 16.5103 48.3993 16.5103C49.1137 16.5103 49.7426 16.6713 50.2859 16.9933C50.8292 17.3152 51.2468 17.7731 51.5386 18.3667C51.8404 18.9603 51.9913 19.6546 51.9913 20.4494C51.9913 21.2443 51.8404 21.9386 51.5386 22.5322C51.2468 23.1258 50.8292 23.5836 50.2859 23.9056C49.7426 24.2276 49.1137 24.3886 48.3993 24.3886ZM48.3993 23.3774C49.154 23.3774 49.7325 23.1309 50.135 22.6378C50.5374 22.1348 50.7387 21.4053 50.7387 20.4494C50.7387 19.5238 50.5324 18.8094 50.1199 18.3063C49.7074 17.7932 49.1338 17.5366 48.3993 17.5366C47.6548 17.5366 47.0762 17.7932 46.6637 18.3063C46.2512 18.8094 46.0449 19.5238 46.0449 20.4494C46.0449 21.4053 46.2462 22.1348 46.6486 22.6378C47.0612 23.1309 47.6447 23.3774 48.3993 23.3774Z" fill="#363E4E"/>
<path d="M57.2324 16.5103C57.8965 16.5103 58.4851 16.6763 58.9982 17.0084C59.5114 17.3404 59.9088 17.8083 60.1905 18.412C60.4723 19.0056 60.6131 19.6948 60.6131 20.4796C60.6131 21.2644 60.4723 21.9537 60.1905 22.5473C59.9088 23.1309 59.5114 23.5836 58.9982 23.9056C58.4952 24.2276 57.9066 24.3886 57.2324 24.3886C56.6388 24.3886 56.1206 24.2578 55.6779 23.9962C55.2352 23.7346 54.8981 23.3623 54.6667 22.8793V27.5429H53.4442V18.8195C53.4442 18.0347 53.404 17.3253 53.3235 16.6914H54.4856L54.6063 18.1554C54.8176 17.6322 55.1497 17.2297 55.6024 16.948C56.0653 16.6562 56.6086 16.5103 57.2324 16.5103ZM57.006 23.3774C57.7506 23.3774 58.3241 23.1258 58.7266 22.6228C59.1391 22.1197 59.3454 21.4053 59.3454 20.4796C59.3454 19.554 59.1391 18.8346 58.7266 18.3214C58.3141 17.7982 57.7405 17.5366 57.006 17.5366C56.2514 17.5366 55.6729 17.7881 55.2704 18.2912C54.8679 18.7943 54.6667 19.5137 54.6667 20.4494C54.6667 21.3852 54.8679 22.1096 55.2704 22.6228C55.6729 23.1258 56.2514 23.3774 57.006 23.3774Z" fill="#363E4E"/>
<path d="M66.9762 24.4188C65.8896 24.4188 64.9388 24.1924 64.1238 23.7396C63.3188 23.2768 62.7001 22.6328 62.2674 21.8078C61.8348 20.9726 61.6184 20.0017 61.6184 18.8949C61.6184 17.7982 61.8348 16.8373 62.2674 16.0123C62.7001 15.1772 63.3188 14.5332 64.1238 14.0804C64.9388 13.6277 65.8896 13.4013 66.9762 13.4013C67.6906 13.4013 68.3698 13.512 69.0137 13.7333C69.6677 13.9446 70.201 14.2465 70.6135 14.6389L69.874 16.3292C69.391 15.967 68.9181 15.7054 68.4553 15.5444C68.0025 15.3734 67.5246 15.2878 67.0215 15.2878C66.0556 15.2878 65.3161 15.5947 64.8029 16.2085C64.2898 16.8222 64.0332 17.7177 64.0332 18.8949C64.0332 20.0822 64.2898 20.9877 64.8029 21.6116C65.3161 22.2253 66.0556 22.5322 67.0215 22.5322C67.5246 22.5322 68.0025 22.4517 68.4553 22.2907C68.9181 22.1197 69.391 21.853 69.874 21.4908L70.6135 23.1812C70.201 23.5736 69.6677 23.8805 69.0137 24.1018C68.3698 24.3131 67.6906 24.4188 66.9762 24.4188Z" fill="#363E4E"/>
<path d="M75.1685 24.4037C74.3535 24.4037 73.6391 24.2427 73.0254 23.9207C72.4217 23.5987 71.9538 23.1359 71.6218 22.5322C71.2998 21.9285 71.1388 21.2242 71.1388 20.4193C71.1388 19.6143 71.2998 18.91 71.6218 18.3063C71.9538 17.7026 72.4217 17.2398 73.0254 16.9178C73.6391 16.5958 74.3535 16.4349 75.1685 16.4349C75.9734 16.4349 76.6777 16.5958 77.2814 16.9178C77.8851 17.2398 78.348 17.7026 78.6699 18.3063C79.002 18.91 79.168 19.6143 79.168 20.4193C79.168 21.2242 79.002 21.9285 78.6699 22.5322C78.348 23.1359 77.8851 23.5987 77.2814 23.9207C76.6777 24.2427 75.9734 24.4037 75.1685 24.4037ZM75.1685 22.668C75.7319 22.668 76.1596 22.4819 76.4513 22.1096C76.7532 21.7373 76.9041 21.1739 76.9041 20.4193C76.9041 19.6747 76.7532 19.1163 76.4513 18.744C76.1596 18.3617 75.7319 18.1705 75.1685 18.1705C74.595 18.1705 74.1573 18.3617 73.8554 18.744C73.5536 19.1163 73.4027 19.6747 73.4027 20.4193C73.4027 21.9184 73.9913 22.668 75.1685 22.668Z" fill="#363E4E"/>
<path d="M89.5292 16.4349C90.4045 16.4349 91.0535 16.7015 91.4761 17.2348C91.9087 17.758 92.1251 18.5629 92.1251 19.6495V24.2829H89.8461V19.725C89.8461 19.1917 89.7606 18.8094 89.5895 18.578C89.4185 18.3365 89.1368 18.2158 88.7444 18.2158C88.2815 18.2158 87.9243 18.3767 87.6728 18.6987C87.4213 19.0207 87.2955 19.4735 87.2955 20.057V24.2829H85.0165V19.725C85.0165 19.2018 84.926 18.8195 84.7449 18.578C84.5738 18.3365 84.2971 18.2158 83.9148 18.2158C83.452 18.2158 83.0897 18.3767 82.8281 18.6987C82.5766 19.0207 82.4508 19.4735 82.4508 20.057V24.2829H80.1719V18.8195C80.1719 18.0045 80.1316 17.275 80.0511 16.6311H82.1943L82.3301 17.7781C82.5615 17.3454 82.8835 17.0134 83.296 16.782C83.7186 16.5506 84.2015 16.4349 84.7449 16.4349C85.8818 16.4349 86.6365 16.9078 87.0087 17.8535C87.2603 17.4209 87.6074 17.0788 88.0501 16.8273C88.5029 16.5657 88.9959 16.4349 89.5292 16.4349Z" fill="#363E4E"/>
<path d="M102.828 16.4349C103.703 16.4349 104.352 16.7015 104.775 17.2348C105.207 17.758 105.424 18.5629 105.424 19.6495V24.2829H103.145V19.725C103.145 19.1917 103.059 18.8094 102.888 18.578C102.717 18.3365 102.435 18.2158 102.043 18.2158C101.58 18.2158 101.223 18.3767 100.971 18.6987C100.72 19.0207 100.594 19.4735 100.594 20.057V24.2829H98.315V19.725C98.315 19.2018 98.2244 18.8195 98.0433 18.578C97.8723 18.3365 97.5956 18.2158 97.2132 18.2158C96.7504 18.2158 96.3882 18.3767 96.1266 18.6987C95.875 19.0207 95.7493 19.4735 95.7493 20.057V24.2829H93.4703V18.8195C93.4703 18.0045 93.4301 17.275 93.3496 16.6311H95.4927L95.6285 17.7781C95.8599 17.3454 96.1819 17.0134 96.5944 16.782C97.017 16.5506 97.5 16.4349 98.0433 16.4349C99.1803 16.4349 99.9349 16.9078 100.307 17.8535C100.559 17.4209 100.906 17.0788 101.349 16.8273C101.801 16.5657 102.294 16.4349 102.828 16.4349Z" fill="#363E4E"/>
<path d="M113.636 20.6456H108.595C108.635 21.36 108.821 21.8832 109.153 22.2153C109.485 22.5372 109.978 22.6982 110.632 22.6982C111.025 22.6982 111.417 22.6328 111.81 22.502C112.202 22.3712 112.564 22.18 112.896 21.9285L113.5 23.4679C113.138 23.7597 112.685 23.9911 112.142 24.1622C111.608 24.3232 111.07 24.4037 110.527 24.4037C109.239 24.4037 108.228 24.0515 107.493 23.3472C106.759 22.6328 106.391 21.6619 106.391 20.4344C106.391 19.6596 106.547 18.9704 106.859 18.3667C107.181 17.7529 107.629 17.28 108.203 16.948C108.776 16.6059 109.425 16.4349 110.149 16.4349C111.226 16.4349 112.076 16.787 112.7 17.4913C113.324 18.1856 113.636 19.1263 113.636 20.3136V20.6456ZM110.21 18.0347C109.777 18.0347 109.425 18.1604 109.153 18.412C108.892 18.6635 108.721 19.0308 108.64 19.5137H111.674C111.553 18.5277 111.065 18.0347 110.21 18.0347Z" fill="#363E4E"/>
<path d="M119.066 16.4499C119.388 16.4499 119.66 16.5003 119.881 16.6009L119.866 18.6836C119.494 18.5126 119.121 18.4271 118.749 18.4271C118.145 18.4271 117.683 18.5931 117.361 18.9251C117.049 19.2471 116.893 19.6999 116.893 20.2834V24.2829H114.614V18.8195C114.614 18.0045 114.574 17.275 114.493 16.6311H116.636L116.787 17.9441C116.978 17.4611 117.275 17.0939 117.678 16.8424C118.09 16.5807 118.553 16.4499 119.066 16.4499Z" fill="#363E4E"/>
<path d="M123.826 24.4037C122.578 24.4037 121.597 24.0515 120.883 23.3472C120.179 22.6429 119.827 21.682 119.827 20.4645C119.827 19.6697 119.998 18.9704 120.34 18.3667C120.682 17.7529 121.16 17.28 121.774 16.948C122.397 16.6059 123.117 16.4349 123.932 16.4349C124.485 16.4349 125.023 16.5204 125.547 16.6914C126.07 16.8625 126.487 17.0939 126.799 17.3857L126.196 18.9704C125.894 18.7289 125.562 18.5428 125.2 18.412C124.837 18.2711 124.485 18.2007 124.143 18.2007C123.519 18.2007 123.031 18.3918 122.679 18.7742C122.337 19.1465 122.166 19.6948 122.166 20.4193C122.166 21.1538 122.337 21.7122 122.679 22.0945C123.021 22.4668 123.509 22.6529 124.143 22.6529C124.485 22.6529 124.837 22.5875 125.2 22.4567C125.562 22.3159 125.894 22.1247 126.196 21.8832L126.799 23.4679C126.467 23.7597 126.035 23.9911 125.501 24.1622C124.968 24.3232 124.41 24.4037 123.826 24.4037Z" fill="#363E4E"/>
<path d="M134.297 20.6456H129.256C129.296 21.36 129.483 21.8832 129.815 22.2153C130.147 22.5372 130.64 22.6982 131.294 22.6982C131.686 22.6982 132.079 22.6328 132.471 22.502C132.863 22.3712 133.226 22.18 133.558 21.9285L134.161 23.4679C133.799 23.7597 133.346 23.9911 132.803 24.1622C132.27 24.3232 131.731 24.4037 131.188 24.4037C129.9 24.4037 128.889 24.0515 128.154 23.3472C127.42 22.6328 127.053 21.6619 127.053 20.4344C127.053 19.6596 127.209 18.9704 127.521 18.3667C127.843 17.7529 128.29 17.28 128.864 16.948C129.437 16.6059 130.086 16.4349 130.811 16.4349C131.887 16.4349 132.738 16.787 133.361 17.4913C133.985 18.1856 134.297 19.1263 134.297 20.3136V20.6456ZM130.871 18.0347C130.438 18.0347 130.086 18.1604 129.815 18.412C129.553 18.6635 129.382 19.0308 129.302 19.5137H132.335C132.214 18.5277 131.726 18.0347 130.871 18.0347Z" fill="#363E4E"/>
<defs>
<clipPath id="clip0_840_9298">
<rect width="31.1164" height="22.4446" fill="white" transform="translate(0 10)"/>
</clipPath>
</defs>
</svg>
