<svg xmlns="http://www.w3.org/2000/svg" fill="none" viewBox="0 0 80 60"><path fill="#5C5C5C" fill-rule="evenodd" d="M65.8 37.44a26.98 26.98 0 0 1-25.84 18.83 27.15 27.15 0 0 1-16.07-5.22c-1.6.09-3.15.1-4.66.07a30.17 30.17 0 0 0 20.73 8.19c14.82 0 27.13-10.59 29.6-24.5-1.18.89-2.44 1.77-3.76 2.63Zm.99-4.61c.12-1.04.19-2.1.19-3.18 0-14.67-12.07-26.62-27.02-26.62S12.95 14.98 12.95 29.65c0 7.06 2.78 13.48 7.34 18.25-1.44 0-2.84-.07-4.17-.19-3.9-5-6.21-11.26-6.21-18.06C9.9 13.28 23.36 0 39.96 0s30.06 13.28 30.06 29.65l-.01.64c-1 .85-2.08 1.7-3.22 2.54Z" clip-rule="evenodd"/><path fill="#5C5C5C" d="M28.17 38.3c-.37.01-.76-.01-1.17-.07a12.43 12.43 0 0 1-2.1-.4c-.3-.1-.52-.18-.67-.26l.48-2.16a7.34 7.34 0 0 0 3.36.7c1.1 0 1.9-.22 2.39-.65.48-.43.72-1 .72-1.72 0-.46-.1-.84-.3-1.15-.19-.3-.45-.54-.79-.72-.32-.2-.7-.32-1.13-.39a6.85 6.85 0 0 0-1.35-.11h-.86l-.01-2.05h1.05c.32 0 .64-.04.96-.1.33-.07.63-.18.9-.34.26-.17.48-.39.64-.65.17-.27.25-.61.25-1.03a1.7 1.7 0 0 0-.7-1.44c-.2-.15-.44-.26-.7-.33a4.5 4.5 0 0 0-2.51.2c-.5.2-.93.4-1.3.65l-.94-1.88a7.68 7.68 0 0 1 1.63-.8 6.83 6.83 0 0 1 2.34-.44c.81 0 1.51.08 2.1.27.6.2 1.08.47 1.46.83.4.34.68.76.87 1.25.2.47.3 1 .3 1.56 0 .67-.18 1.27-.55 1.8-.36.54-.83.95-1.41 1.23.75.26 1.38.7 1.87 1.3.51.61.77 1.4.78 2.36 0 .64-.1 1.25-.32 1.8A3.8 3.8 0 0 1 32.44 37c-.46.4-1.04.7-1.75.95-.7.23-1.54.35-2.52.36ZM41 30.84c-.4 0-.8.04-1.18.11-.37.07-.72.18-1.02.32l-.04.38v.38c0 .56.05 1.08.12 1.59.09.48.23.92.41 1.29.2.36.46.65.78.87.34.2.75.31 1.24.3.4 0 .75-.08 1.03-.25.29-.17.53-.4.7-.66.19-.26.32-.55.4-.86.08-.32.12-.63.12-.92-.01-.84-.22-1.47-.63-1.9-.4-.44-1.05-.66-1.93-.65Zm.3-2.01c.86-.01 1.6.1 2.2.35a3.8 3.8 0 0 1 1.5.98c.38.41.65.9.83 1.45a5.37 5.37 0 0 1 0 3.4 4.49 4.49 0 0 1-2.34 2.73c-.6.3-1.31.45-2.14.46-1.66.01-2.94-.52-3.83-1.6-.87-1.1-1.32-2.6-1.34-4.53 0-1.4.19-2.63.58-3.7a7.6 7.6 0 0 1 1.74-2.76 7.51 7.51 0 0 1 2.75-1.7c1.1-.4 2.31-.61 3.67-.64l.16 2.1c-.75.01-1.46.1-2.11.26-.66.15-1.24.38-1.76.69a4.75 4.75 0 0 0-2.16 3c.69-.32 1.43-.49 2.24-.5ZM55.05 33.63c0-.46-.1-.87-.28-1.23a2.2 2.2 0 0 0-.97-.91 5.63 5.63 0 0 0-1.83-.55c-.75-.12-1.71-.18-2.87-.17.14-1.34.25-2.61.32-3.81.08-1.21.14-2.43.18-3.64l7.42-.06.02 2.13-5.26.04-.06.82a21 21 0 0 1-.05.9 16.34 16.34 0 0 1-.14 1.6c2.07.09 3.6.55 4.59 1.38 1 .81 1.5 1.94 1.51 3.37 0 .66-.1 1.27-.32 1.83a3.76 3.76 0 0 1-1.01 1.45c-.46.4-1.04.73-1.74.98a8.1 8.1 0 0 1-3.6.28 13.48 13.48 0 0 1-2.71-.65l.46-2.14a7.77 7.77 0 0 0 4.7.48c.4-.12.7-.3.94-.5.25-.22.43-.45.54-.72.11-.28.17-.57.16-.88Z"/><path fill="#9CCDFF" fill-rule="evenodd" d="M9.23 28.81v.21c-5.37 5.28-6.93 9.96-5.87 13.2 1.1 3.34 5.39 6.27 13.37 7.24 6.73.83 15.28.12 24.37-2.38l.77 2.93C21.69 55.54 3.63 52.73.47 43.16c-1.84-5.6 1.8-12.36 9.05-18.5a30.05 30.05 0 0 0-.29 4.15Zm47.66 15.4c14.28-6.75 25.77-17.23 22.57-26.95-1.81-5.5-8.55-8.77-17.79-9.5a30.39 30.39 0 0 1 2.9 3.39c7.1 1.13 10.97 3.91 12 7.06 1.1 3.35-.6 8.24-6.45 13.75-4.94 4.66-7.66 5.85-14.13 9.39l1.04.29c.72.35 1.07.88.44 1.7l-.58.87Z" clip-rule="evenodd"/><path fill="#9CCDFF" d="M46.9 44.67c0 .33-1.84 1.01-2.63 1.2 0 0-1.9-1.57-2.22-1.05-.31.51.94 1.71 1.22 2.4.42 1.04.05 2.62.55 2.58.71-.04.87-1.64 1.01-2.34a6.13 6.13 0 0 1 2.62-.78c.5.1.3 1.82.3 4.32 1.67 0 2.27-4.46 3.06-5.22.8-.76 4.52-2.5 4.52-2.5s.78-.3.66-.75c-.11-.4-1-.27-1-.27s-4.12.86-5.01.97c-1.12.14-1.4-.83-3.34-1.8-1.56-.78-2.6-.32-2.93 0 .98 1.02 3.22 2.23 3.2 3.24Z"/></svg>