<svg width="63" height="60" viewBox="0 0 63 60" fill="none" xmlns="http://www.w3.org/2000/svg">
<g clip-path="url(#clip0_682_8640)">
<path fill-rule="evenodd" clip-rule="evenodd" d="M60.6559 47.4512C59.752 47.4512 59.0162 46.7154 59.0162 45.8026C59.0162 44.8962 59.752 44.1538 60.6559 44.1538C61.5598 44.1538 62.2963 44.8962 62.2963 45.8026C62.2963 46.7154 61.5598 47.4512 60.6559 47.4512ZM60.6559 44.4689C59.921 44.4689 59.3249 45.0659 59.3249 45.8026C59.3249 46.5449 59.921 47.1427 60.6559 47.1427C61.3923 47.1427 61.9869 46.5449 61.9869 45.8026C61.9869 45.0659 61.3923 44.4689 60.6559 44.4689ZM61.0734 46.7348L60.6078 45.9335H60.337V46.7348H60.0285V44.8695H60.7144C61.1712 44.8695 61.4164 45.0238 61.4164 45.4165C61.4164 45.7549 61.2048 45.889 60.9171 45.9196L61.4284 46.7348H61.0734ZM61.1046 45.3898C61.1046 45.1677 60.8955 45.1264 60.7144 45.1264H60.337V45.6749H60.7087C60.9267 45.6749 61.1046 45.6434 61.1046 45.3898ZM0.43015 56.2419C0.645759 56.0262 0.843638 55.8994 1.17462 55.8994C1.7179 55.8994 2.09533 56.3218 2.09533 56.9269C2.09533 57.6354 1.63941 58.0901 0.940567 58.0901C0.692215 58.0901 0.48949 58.0433 0.208984 57.931L0.208984 54.8484H0.43015L0.43015 56.2419ZM0.43015 57.7719C0.613607 57.8422 0.774723 57.8696 0.935839 57.8696C1.47427 57.8696 1.86057 57.4803 1.86057 56.9406C1.86057 56.4439 1.56163 56.0868 1.14731 56.0868C0.890093 56.0868 0.678621 56.2088 0.43015 56.4955L0.43015 57.7719ZM2.62395 55.9415L3.37398 57.4149L4.08724 55.9415H4.31242L2.76663 59.1275H2.54144L3.26345 57.6404L2.39392 55.9415H2.62395ZM7.5325 54.2013H11.1827V50.9967H12.6613L12.6613 58.2128H12.0947C12.0097 58.2128 11.9168 58.204 11.811 58.1854C11.702 58.1652 11.6018 58.1281 11.5105 58.0731C11.4168 58.0166 11.3373 57.9374 11.2749 57.8372C11.2124 57.7338 11.1811 57.5997 11.1811 57.4365L11.1827 54.8484H7.5325V58.2128H6.05479V50.9967H7.5325V54.2013ZM18.2679 50.8364L21.9663 58.2125H21.0558C20.8315 58.2125 20.6464 58.1712 20.5045 58.0783C20.3635 57.9879 20.2433 57.84 20.1471 57.6397L19.2953 55.9183H16.6026L16.9777 55.1824H18.9234L17.7118 52.7565L14.9078 58.2116H14.0448L17.8352 50.8364H18.2679ZM27.9208 51.3518C28.6532 51.7258 28.9634 52.2517 28.9634 52.9182C28.9634 53.5854 28.5724 54.3721 27.1708 54.7679L29.994 58.2116L28.8616 58.2116C28.8616 58.2116 28.6236 58.2133 28.3464 58.1171C28.0691 58.021 27.7694 57.6332 27.7694 57.6332L25.5905 54.9133H24.8332V58.2108H23.3554V50.9956H26.0681C26.0681 50.9956 27.1876 50.9778 27.9208 51.3518ZM24.8291 51.6296V54.3633H25.5127C25.5127 54.3633 26.1915 54.3738 26.6323 54.1161C27.0738 53.8584 27.3856 53.4998 27.3856 52.9642C27.3856 52.4286 27.0489 51.9536 26.5729 51.7662C26.5729 51.7662 26.3005 51.6296 25.8149 51.6296H24.8291ZM35.7309 56.3409L38.6229 50.9965H40.0687V58.2126H39.5022C39.4155 58.2126 39.3226 58.2021 39.2176 58.1843C39.1102 58.1649 39.0092 58.127 38.917 58.072C38.8233 58.0147 38.744 57.9347 38.6831 57.8354C38.6198 57.7328 38.5862 57.5986 38.5862 57.4355V52.6597L35.5626 58.2126H35.1771L32.0726 52.6161V58.2126H31.3186V50.9965H32.7819L35.7309 56.3409ZM45.6428 50.8362L49.3371 58.2122H48.4347C48.2104 58.2122 48.0244 58.1703 47.8826 58.0773C47.7424 57.9868 47.6222 57.839 47.5261 57.6387L45.0858 52.7571L43.8413 55.1822H45.7774L46.1485 55.918H43.4647L42.2891 58.2131H41.4252L45.2093 50.8362H45.6428ZM56.5681 56.0434V51.3913C56.5681 51.3098 56.5848 51.2403 56.6177 51.1862C56.6482 51.1361 56.6898 51.0949 56.7395 51.0642C56.7852 51.0367 56.8357 51.0181 56.8885 51.0076C56.9406 50.9996 56.9847 50.9963 57.0248 50.9963H57.4151V58.2125H57.3124C57.0392 58.2125 56.7579 58.2278 56.5536 58.0332L51.5619 52.7719V58.2125H50.6997V50.9963H51.6484L56.5681 56.0434Z" fill="#FF4612"/>
<path d="M30.4797 22.2723C31.6593 22.2723 31.9542 22.072 31.9542 18.9603C31.9542 15.8494 31.6593 15.6015 30.4797 15.6015H28.7079V22.2675L30.4797 22.2723Z" fill="#FF4612"/>
<path d="M31.9542 27.9714C31.9542 24.8589 31.9542 23.9476 30.6735 23.9476H28.7079V31.9457L30.6735 31.9498C31.9542 31.9498 31.9542 31.0814 31.9542 27.9714Z" fill="#FF4612"/>
<path fill-rule="evenodd" clip-rule="evenodd" d="M58.002 0H0.00195312V47H58.002V0ZM47.3887 33.5767H37.5575V13.7257H40.8022V30.7114C40.8022 31.638 41.5515 32.3925 42.4739 32.3925C43.397 32.3925 44.1455 31.638 44.1455 30.7114L44.1432 27.2557H47.3887V33.5767ZM25.4671 33.5767V13.7257H31.9542C33.2059 13.7257 35.1973 14.7621 35.1973 16.9602V20.3417C35.1973 21.3304 34.3375 23.0825 33.06 23.0825C34.3375 23.0825 35.1973 24.1925 35.1973 25.0334V30.9837C35.1973 31.9958 34.3871 33.5767 31.9542 33.5767H25.4671ZM18.0903 33.8715C14.4538 33.8715 13.1756 31.5508 13.1756 30.1193V27.2557H16.4179L16.4203 30.7114C16.4203 31.638 17.1688 32.3925 18.0928 32.3925C19.0159 32.3925 19.7628 31.6154 19.7628 30.6888L19.7612 13.7257H23.0068V30.1193C23.0068 32.096 21.7278 33.8715 18.0903 33.8715ZM14.7973 25.0936C15.8327 25.0936 16.6741 24.2478 16.6741 23.2082C16.6741 22.1637 15.8327 21.3212 14.7973 21.3212C13.7588 21.3212 12.9197 22.1637 12.9197 23.2082C12.9197 24.2478 13.7588 25.0936 14.7973 25.0936ZM17.7955 13.7256L14.7975 20.5887L11.7988 13.7256H17.7955Z" fill="#FF4612"/>
</g>
<defs>
<clipPath id="clip0_682_8640">
<rect width="62.2951" height="59.1275" fill="white"/>
</clipPath>
</defs>
</svg>
