<svg xmlns="http://www.w3.org/2000/svg" fill="none" viewBox="0 0 150 41"><path fill="#43C529" d="M12.04 32.2C5.79 32.2.74 27.17.74 20.97c0-6.21 5.05-11.24 11.3-11.24 6.23 0 11.29 5.03 11.29 11.24 0 6.2-5.05 11.23-11.3 11.23Zm0-23.2A12 12 0 0 0 0 20.97a12 12 0 0 0 12.04 11.96 12 12 0 0 0 12.03-11.96A12 12 0 0 0 12.04 9Z"/><path fill="#43C529" d="M1.67 20.9c4.1 1.28 7.98 5.26 9.15 10.35A10.33 10.33 0 0 1 1.67 20.9ZM22.35 20.9c-4.1 1.28-8.03 5.26-9.15 10.35a10.33 10.33 0 0 0 9.15-10.36ZM12.02 31.25c-4.38-6.72-3.43-15.93 0-20.9 3.28 4.97 4.3 14.18 0 20.9Z"/><path fill="#333" d="M35.47 10.28v3.7h-4.78v-3.7h-2.44v9.4h2.44v-3.85h4.78v3.85h2.43v-9.4h-2.43ZM42.81 17.94v-2.18h4.89v-1.69H42.8v-2.04h5.53v-1.75H40.4v9.4h8.15v-1.74H42.8ZM69.26 14.8c.85-.4 1.4-1.13 1.4-2.07 0-1.47-1.36-2.45-3.99-2.45h-5.14v9.4h5.44c2.77 0 4.21-.94 4.21-2.56 0-1.18-.75-1.99-1.92-2.33Zm-2.89-2.88c1.19 0 1.83.36 1.83 1.1 0 .74-.64 1.12-1.83 1.12h-2.42v-2.22h2.42Zm.42 6.13h-2.84v-2.33h2.84c1.26 0 1.94.38 1.94 1.17 0 .8-.68 1.16-1.94 1.16ZM80.89 19.68h2.55l-4.7-9.4h-2.4l-4.7 9.4h2.5l.93-2.01h4.88l.94 2.01Zm-5.04-3.66 1.67-3.6 1.67 3.6h-3.34ZM84.53 19.68h7.71v-1.77h-5.27v-7.63h-2.44v9.4ZM93.6 19.68h2.44v-9.4h-2.43v9.4ZM106.49 12.03v-1.75h-7.95v9.4h2.43v-3.42h4.87V14.5h-4.87v-2.48h5.52ZM110.56 17.94v-2.18h4.88v-1.69h-4.88v-2.04h5.53v-1.75h-7.95v9.4h8.14v-1.74h-5.72Z"/><path fill="#333" fill-rule="evenodd" d="M58.37 15.24c1.39.43 1.66 1.46 1.71 2.6.03.6.07 1.2.44 1.77-.25.11-.48.06-.69.06-.52.01-1.05.01-1.57 0-.49 0-.53-.03-.64-.48-.06-.29-.1-.6-.14-.9-.05-.33-.07-.67-.15-1-.16-.75-.57-1.13-1.36-1.22-1.02-.11-2.05-.03-3.08-.05-.27 0-.29.16-.29.36v3.08c0 .14-.09.21-.24.21H50.1c-.19 0-.27-.1-.27-.26V10.52c0-.17.1-.25.28-.24h6.48c.77 0 1.5.14 2.18.5 1.13.57 1.6 1.55 1.36 2.7a2.06 2.06 0 0 1-.97 1.35c-.21.13-.44.23-.79.4Zm-3.94-.76h1.7c.11 0 .24-.05.36-.08.7-.2 1.05-.73.92-1.43-.1-.6-.53-.97-1.3-1-1.06-.04-2.13-.02-3.2-.04-.25 0-.31.11-.3.33l-.01 1.93c0 .29.14.33.38.32h1.45v-.03Z" clip-rule="evenodd"/><path fill="#43C529" d="M35.7 21.14v6.02l-5.38-6.02h-2.07v9.91h2.47v-6.02l5.4 6.02h2.05v-9.91H35.7ZM45.54 31.22c3.07 0 4.9-1.61 4.9-4.53v-5.55h-2.48v5.46c0 1.89-.88 2.67-2.4 2.67s-2.42-.78-2.42-2.67v-5.46h-2.5v5.55c0 2.92 1.82 4.53 4.9 4.53ZM54.97 31.05h2.5v-8.04h3.46v-1.87h-9.42V23h3.46v8.04ZM73.64 31.05h2.5v-9.91h-2.5v9.91ZM80.95 31.05h2.5v-8.04h3.46v-1.87H77.5V23h3.46v8.04ZM88.26 31.05h2.5v-9.91h-2.5v9.91ZM98.57 31.22c3.4 0 5.92-2.17 5.92-5.13s-2.52-5.12-5.92-5.12c-3.42 0-5.92 2.18-5.92 5.12 0 2.95 2.5 5.13 5.92 5.13Zm0-1.95c-1.93 0-3.39-1.3-3.39-3.18 0-1.88 1.46-3.17 3.39-3.17 1.93 0 3.38 1.29 3.38 3.17 0 1.89-1.45 3.18-3.38 3.18ZM113.81 21.14v6.02l-5.37-6.02h-2.07v9.91h2.47v-6.02l5.39 6.02h2.05v-9.91h-2.47Z"/><path fill="#43C529" fill-rule="evenodd" d="M70 26.54c1.33.48 1.58 1.6 1.64 2.84.03.66.07.88.41 1.5-.23.13-.45.07-.65.07h-1.51c-.47 0-.51-.03-.61-.52-.07-.32-.1-.22-.14-.55-.05-.37-.07-.74-.14-1.1-.16-.82-.55-1.23-1.3-1.33-.99-.12-1.98-.03-2.96-.05-.26-.01-.28.17-.28.38v2.94c-.01.15-.09.23-.23.23h-2.18c-.17 0-.25-.1-.25-.29V21.4c0-.2.1-.27.27-.26h6.22c.73 0 1.44.15 2.09.53a2.67 2.67 0 0 1 1.3 2.96 2.25 2.25 0 0 1-.93 1.47c-.2.14-.42.25-.75.44Zm-3.8-.82h1.64c.11 0 .23-.06.35-.1.68-.2 1-.79.88-1.55-.1-.66-.5-1.06-1.24-1.1-1.02-.04-2.05-.02-3.07-.04-.25 0-.3.13-.3.37v2.1c-.01.32.13.36.36.35h1.39v-.03Z" clip-rule="evenodd"/></svg>