<svg width="329" height="84" viewBox="0 0 329 84" fill="none" xmlns="http://www.w3.org/2000/svg">
<g clip-path="url(#clip0_1364_281)">
<path d="M77.3867 82.5611V53.6995C77.3867 47.6766 74.8749 44.6386 69.9046 44.6386C64.9076 44.6386 62.3957 47.65 62.3957 53.6995V82.5611H47.672V53.6995C47.672 47.6766 45.2136 44.6386 40.2967 44.6386C35.2997 44.6386 32.8146 47.65 32.8146 53.6995V82.5611H18.0908V51.9939C18.0908 45.7046 20.282 40.9342 24.6644 37.7096C28.5124 34.8315 33.7499 33.3657 40.3234 33.3657C46.9772 33.3657 51.894 35.0713 55.0472 38.4825C57.7728 35.0713 62.7164 33.3657 69.9046 33.3657C76.4782 33.3657 81.6889 34.8048 85.5369 37.7096C89.9193 40.9342 92.1105 45.7046 92.1105 51.9939V82.5611H77.3867Z" fill="#F98012"/>
<path d="M257.893 82.4277V0H272.643V82.4277H257.893Z" fill="#F98012"/>
<path d="M239.107 82.4277V77.5774C237.798 79.3363 235.553 80.7221 232.4 81.7881C229.594 82.7475 226.922 83.2272 224.384 83.2272C217.356 83.2272 211.717 80.8287 207.469 76.0051C203.22 71.2081 201.082 65.2386 201.082 58.1497C201.082 51.1409 203.166 45.2779 207.335 40.5609C211.023 36.3769 217.062 33.4721 223.983 33.4721C231.785 33.4721 236.355 36.4036 239.107 39.7614V0H253.457V82.4277H239.107ZM239.107 54.9784C239.107 52.3668 237.851 49.835 235.366 47.4365C232.881 45.0381 230.289 43.8388 227.67 43.8388C223.903 43.8388 220.91 45.3845 218.718 48.4226C216.795 51.1409 215.833 54.4721 215.833 58.3896C215.833 62.2538 216.795 65.5317 218.718 68.2234C220.91 71.368 223.903 72.9404 227.67 72.9404C229.942 72.9404 232.427 71.8744 235.099 69.7157C237.771 67.5838 239.107 65.3718 239.107 63.0799V54.9784Z" fill="#F98012"/>
<path d="M173.318 83.7334C165.862 83.7334 159.69 81.3616 154.826 76.6446C149.963 71.9276 147.531 65.8515 147.531 58.3895C147.531 50.9543 149.963 44.8781 154.826 40.1611C159.69 35.4441 165.862 33.0723 173.318 33.0723C180.773 33.0723 186.973 35.4441 191.863 40.1611C196.78 44.8781 199.238 50.9809 199.238 58.3895C199.238 65.8248 196.78 71.901 191.863 76.6446C186.946 81.3616 180.773 83.7334 173.318 83.7334ZM173.318 44.8781C169.764 44.8781 167.038 46.2106 165.114 48.9022C163.217 51.5938 162.255 54.7652 162.255 58.4695C162.255 62.1738 163.137 65.2918 164.927 67.8235C166.958 70.7284 169.764 72.1674 173.318 72.1674C176.872 72.1674 179.651 70.7284 181.709 67.8235C183.579 65.2652 184.514 62.1471 184.514 58.4695C184.514 54.7652 183.633 51.6471 181.842 49.1154C179.785 46.2905 176.952 44.8781 173.318 44.8781Z" fill="#F98012"/>
<path d="M120.008 83.7334C112.553 83.7334 106.38 81.3616 101.517 76.6446C96.6534 71.9276 94.2217 65.8515 94.2217 58.3895C94.2217 50.9543 96.6534 44.8781 101.517 40.1611C106.38 35.4441 112.553 33.0723 120.008 33.0723C127.464 33.0723 133.636 35.4441 138.553 40.1611C143.47 44.8781 145.929 50.9809 145.929 58.3895C145.929 65.8248 143.47 71.901 138.553 76.6446C133.663 81.3616 127.464 83.7334 120.008 83.7334ZM120.008 44.8781C116.454 44.8781 113.729 46.2106 111.805 48.9022C109.907 51.5938 108.945 54.7652 108.945 58.4695C108.945 62.1738 109.827 65.2918 111.618 67.8235C113.648 70.7284 116.454 72.1674 120.008 72.1674C123.562 72.1674 126.341 70.7284 128.399 67.8235C130.27 65.2652 131.205 62.1471 131.205 58.4695C131.205 54.7652 130.323 51.6471 128.533 49.1154C126.502 46.2905 123.669 44.8781 120.008 44.8781Z" fill="#F98012"/>
<path d="M290.093 62.8667C290.414 66.3579 294.956 73.8997 302.465 73.8997C309.76 73.8997 313.207 69.6891 313.394 67.9835L328.92 67.8502C327.236 73.0203 320.342 84 302.198 84C294.662 84 287.741 81.6548 282.798 76.9911C277.854 72.3007 275.369 66.198 275.369 58.6827C275.369 50.901 277.854 44.7183 282.798 40.1079C287.768 35.5241 294.181 33.2056 302.091 33.2056C310.695 33.2056 317.403 36.0571 322.213 41.7335C326.675 46.9835 328.92 54.019 328.92 62.8667H290.093V62.8667ZM314.169 53.8058C313.555 50.6612 312.245 48.0761 310.215 46.0507C307.916 43.8655 305.298 42.7728 302.305 42.7728C299.232 42.7728 296.666 43.8122 294.609 45.9175C292.551 48.0228 291.162 50.6345 290.467 53.8058H314.169Z" fill="#F98012"/>
<path d="M46.6832 31.1535L61.3 20.4936L61.113 19.854C34.7385 23.0786 22.7403 25.3705 0 38.5088L0.213775 39.0951L2.03086 39.1218C1.87053 40.9339 1.57659 45.4111 1.9507 52.1801C-0.56116 59.4555 1.89725 64.4124 4.19534 69.7956C4.56944 64.1992 4.516 58.0697 2.8058 51.9669C2.45841 45.2779 2.75236 40.854 2.91269 39.1484L17.9838 39.2817C17.9838 39.2817 17.877 43.8121 18.4381 48.1027C31.9059 52.8197 45.4539 48.0761 52.6421 36.4568C50.6113 34.1916 46.6832 31.1535 46.6832 31.1535Z" fill="#333333"/>
</g>
<defs>
<clipPath id="clip0_1364_281">
<rect width="329" height="84" fill="white"/>
</clipPath>
</defs>
</svg>
